<svg width="707" height="62" viewBox="0 0 707 62" fill="none" xmlns="http://www.w3.org/2000/svg">
<g clip-path="url(#clip0_6_392)">
<path d="M75.5975 52.3669H70.3438V47.1302H75.5975V52.3669Z" fill="#F15E31"/>
<path d="M75.5975 47.1302H70.3438V41.8935H75.5975V47.1302Z" fill="#F15E31"/>
<path d="M75.5975 41.8936H70.3438V36.6568H75.5975V41.8936Z" fill="#F15E31"/>
<path d="M75.5975 36.6569H70.3438V31.4201H75.5975V36.6569Z" fill="#F15E31"/>
<path d="M75.5975 31.4202H70.3438V26.1835H75.5975V31.4202Z" fill="#F15E31"/>
<path d="M80.8514 31.4202H75.5977V26.1835H80.8514V31.4202Z" fill="#F15E31"/>
<path d="M86.1053 31.4202H80.8516V26.1835H86.1053V31.4202Z" fill="#F15E31"/>
<path d="M91.3592 31.4202H86.1055V26.1835H91.3592V31.4202Z" fill="#F15E31"/>
<path d="M96.6131 26.1835H91.3594V20.9468H96.6131V26.1835Z" fill="#F15E31"/>
<path d="M75.5975 26.1835H70.3438V20.9468H75.5975V26.1835Z" fill="#F15E31"/>
<path d="M75.5975 20.9468H70.3438V15.7101H75.5975V20.9468Z" fill="#F15E31"/>
<path d="M80.8514 20.9468H75.5977V15.7101H80.8514V20.9468Z" fill="#F15E31"/>
<path d="M86.1053 20.9468H80.8516V15.7101H86.1053V20.9468Z" fill="#F15E31"/>
<path d="M91.3592 20.9468H86.1055V15.7101H91.3592V20.9468Z" fill="#F15E31"/>
<path d="M107.119 52.3669H101.865V47.1302H107.119V52.3669Z" fill="#F15E31"/>
<path d="M107.119 47.1302H101.865V41.8935H107.119V47.1302Z" fill="#F15E31"/>
<path d="M107.119 41.8936H101.865V36.6568H107.119V41.8936Z" fill="#F15E31"/>
<path d="M107.119 36.6567H101.865V31.42H107.119V36.6567Z" fill="#F15E31"/>
<path d="M107.119 31.4202H101.865V26.1835H107.119V31.4202Z" fill="#F15E31"/>
<path d="M112.373 31.4202H107.119V26.1835H112.373V31.4202Z" fill="#F15E31"/>
<path d="M117.627 31.4202H112.373V26.1835H117.627V31.4202Z" fill="#F15E31"/>
<path d="M122.881 31.4202H117.627V26.1835H122.881V31.4202Z" fill="#F15E31"/>
<path d="M128.135 26.1835H122.881V20.9468H128.135V26.1835Z" fill="#F15E31"/>
<path d="M107.119 26.1835H101.865V20.9468H107.119V26.1835Z" fill="#F15E31"/>
<path d="M107.119 20.9468H101.865V15.7101H107.119V20.9468Z" fill="#F15E31"/>
<path d="M112.373 20.9468H107.119V15.7101H112.373V20.9468Z" fill="#F15E31"/>
<path d="M117.627 20.9468H112.373V15.7101H117.627V20.9468Z" fill="#F15E31"/>
<path d="M122.881 20.9468H117.627V15.7101H122.881V20.9468Z" fill="#F15E31"/>
<path d="M233.176 52.3669H227.922V47.1302H233.176V52.3669Z" fill="#F15E31"/>
<path d="M233.176 47.1302H227.922V41.8935H233.176V47.1302Z" fill="#F15E31"/>
<path d="M233.176 41.8936H227.922V36.6568H233.176V41.8936Z" fill="#F15E31"/>
<path d="M233.176 36.6567H227.922V31.42H233.176V36.6567Z" fill="#F15E31"/>
<path d="M233.176 31.4202H227.922V26.1835H233.176V31.4202Z" fill="#F15E31"/>
<path d="M238.429 31.4202H233.176V26.1835H238.429V31.4202Z" fill="#F15E31"/>
<path d="M243.683 31.4202H238.43V26.1835H243.683V31.4202Z" fill="#F15E31"/>
<path d="M248.937 31.4202H243.684V26.1835H248.937V31.4202Z" fill="#F15E31"/>
<path d="M254.191 26.1835H248.938V20.9468H254.191V26.1835Z" fill="#F15E31"/>
<path d="M233.176 26.1835H227.922V20.9468H233.176V26.1835Z" fill="#F15E31"/>
<path d="M233.176 20.9468H227.922V15.7101H233.176V20.9468Z" fill="#F15E31"/>
<path d="M238.429 20.9468H233.176V15.7101H238.429V20.9468Z" fill="#F15E31"/>
<path d="M243.683 20.9468H238.43V15.7101H243.683V20.9468Z" fill="#F15E31"/>
<path d="M248.937 20.9468H243.684V15.7101H248.937V20.9468Z" fill="#F15E31"/>
<path d="M343.504 52.3669H338.25V47.1302H343.504V52.3669Z" fill="#F15E31"/>
<path d="M348.758 52.3669H343.504V47.1302H348.758V52.3669Z" fill="#F15E31"/>
<path d="M354.011 52.3669H348.758V47.1302H354.011V52.3669Z" fill="#F15E31"/>
<path d="M359.265 52.3669H354.012V47.1302H359.265V52.3669Z" fill="#F15E31"/>
<path d="M343.504 47.1302H338.25V41.8935H343.504V47.1302Z" fill="#F15E31"/>
<path d="M343.504 41.8936H338.25V36.6568H343.504V41.8936Z" fill="#F15E31"/>
<path d="M343.504 36.6567H338.25V31.42H343.504V36.6567Z" fill="#F15E31"/>
<path d="M343.504 31.4202H338.25V26.1835H343.504V31.4202Z" fill="#F15E31"/>
<path d="M348.758 31.4202H343.504V26.1835H348.758V31.4202Z" fill="#F15E31"/>
<path d="M354.011 31.4202H348.758V26.1835H354.011V31.4202Z" fill="#F15E31"/>
<path d="M359.265 31.4202H354.012V26.1835H359.265V31.4202Z" fill="#F15E31"/>
<path d="M364.519 26.1835H359.266V20.9468H364.519V26.1835Z" fill="#F15E31"/>
<path d="M364.519 36.6567H359.266V31.42H364.519V36.6567Z" fill="#F15E31"/>
<path d="M364.519 47.1302H359.266V41.8935H364.519V47.1302Z" fill="#F15E31"/>
<path d="M364.519 41.8936H359.266V36.6568H364.519V41.8936Z" fill="#F15E31"/>
<path d="M343.504 26.1835H338.25V20.9468H343.504V26.1835Z" fill="#F15E31"/>
<path d="M343.504 20.9468H338.25V15.7101H343.504V20.9468Z" fill="#F15E31"/>
<path d="M348.758 20.9468H343.504V15.7101H348.758V20.9468Z" fill="#F15E31"/>
<path d="M354.011 20.9468H348.758V15.7101H354.011V20.9468Z" fill="#F15E31"/>
<path d="M359.265 20.9468H354.012V15.7101H359.265V20.9468Z" fill="#F15E31"/>
<path d="M44.074 52.3669H38.8203V47.1302H44.074V52.3669Z" fill="#F15E31"/>
<path d="M44.074 47.1302H38.8203V41.8935H44.074V47.1302Z" fill="#F15E31"/>
<path d="M44.074 41.8936H38.8203V36.6568H44.074V41.8936Z" fill="#F15E31"/>
<path d="M44.074 36.6569H38.8203V31.4201H44.074V36.6569Z" fill="#F15E31"/>
<path d="M44.074 31.4202H38.8203V26.1835H44.074V31.4202Z" fill="#F15E31"/>
<path d="M44.074 26.1835H38.8203V20.9468H44.074V26.1835Z" fill="#F15E31"/>
<path d="M44.074 20.9468H38.8203V15.7101H44.074V20.9468Z" fill="#F15E31"/>
<path d="M49.3279 20.9468H44.0742V15.7101H49.3279V20.9468Z" fill="#F15E31"/>
<path d="M49.3279 31.4202H44.0742V26.1835H49.3279V31.4202Z" fill="#F15E31"/>
<path d="M49.3279 52.3669H44.0742V47.1302H49.3279V52.3669Z" fill="#F15E31"/>
<path d="M54.5818 52.3669H49.3281V47.1302H54.5818V52.3669Z" fill="#F15E31"/>
<path d="M59.8357 52.3669H54.582V47.1302H59.8357V52.3669Z" fill="#F15E31"/>
<path d="M65.0896 52.3669H59.8359V47.1302H65.0896V52.3669Z" fill="#F15E31"/>
<path d="M54.5818 31.4202H49.3281V26.1835H54.5818V31.4202Z" fill="#F15E31"/>
<path d="M54.5818 20.9468H49.3281V15.7101H54.5818V20.9468Z" fill="#F15E31"/>
<path d="M59.8357 20.9468H54.582V15.7101H59.8357V20.9468Z" fill="#F15E31"/>
<path d="M65.0896 20.9468H59.8359V15.7101H65.0896V20.9468Z" fill="#F15E31"/>
<path d="M653.471 52.3669H648.217V47.1302H653.471V52.3669Z" fill="#F15E31"/>
<path d="M653.471 47.1302H648.217V41.8935H653.471V47.1302Z" fill="#F15E31"/>
<path d="M653.471 41.8936H648.217V36.6568H653.471V41.8936Z" fill="#F15E31"/>
<path d="M653.471 36.6567H648.217V31.42H653.471V36.6567Z" fill="#F15E31"/>
<path d="M653.471 31.4202H648.217V26.1835H653.471V31.4202Z" fill="#F15E31"/>
<path d="M653.471 26.1835H648.217V20.9468H653.471V26.1835Z" fill="#F15E31"/>
<path d="M653.471 20.9468H648.217V15.7101H653.471V20.9468Z" fill="#F15E31"/>
<path d="M658.724 20.9468H653.471V15.7101H658.724V20.9468Z" fill="#F15E31"/>
<path d="M658.724 31.4202H653.471V26.1835H658.724V31.4202Z" fill="#F15E31"/>
<path d="M658.724 52.3669H653.471V47.1302H658.724V52.3669Z" fill="#F15E31"/>
<path d="M663.978 52.3669H658.725V47.1302H663.978V52.3669Z" fill="#F15E31"/>
<path d="M669.232 52.3669H663.979V47.1302H669.232V52.3669Z" fill="#F15E31"/>
<path d="M674.486 52.3669H669.232V47.1302H674.486V52.3669Z" fill="#F15E31"/>
<path d="M663.978 31.4202H658.725V26.1835H663.978V31.4202Z" fill="#F15E31"/>
<path d="M663.978 20.9468H658.725V15.7101H663.978V20.9468Z" fill="#F15E31"/>
<path d="M669.232 20.9468H663.979V15.7101H669.232V20.9468Z" fill="#F15E31"/>
<path d="M674.486 20.9468H669.232V15.7101H674.486V20.9468Z" fill="#F15E31"/>
<path d="M12.5525 20.9468H7.29883V15.7101H12.5525V20.9468Z" fill="#F15E31"/>
<path d="M17.8064 20.9468H12.5527V15.7101H17.8064V20.9468Z" fill="#F15E31"/>
<path d="M23.0603 20.9468H17.8066V15.7101H23.0603V20.9468Z" fill="#F15E31"/>
<path d="M23.0603 26.1835H17.8066V20.9468H23.0603V26.1835Z" fill="#F15E31"/>
<path d="M23.0603 31.4202H17.8066V26.1835H23.0603V31.4202Z" fill="#F15E31"/>
<path d="M23.0603 36.6569H17.8066V31.4201H23.0603V36.6569Z" fill="#F15E31"/>
<path d="M23.0603 41.8936H17.8066V36.6568H23.0603V41.8936Z" fill="#F15E31"/>
<path d="M23.0603 47.1302H17.8066V41.8935H23.0603V47.1302Z" fill="#F15E31"/>
<path d="M23.0603 52.3669H17.8066V47.1302H23.0603V52.3669Z" fill="#F15E31"/>
<path d="M28.3143 20.9468H23.0605V15.7101H28.3143V20.9468Z" fill="#F15E31"/>
<path d="M33.5682 20.9468H28.3145V15.7101H33.5682V20.9468Z" fill="#F15E31"/>
<path d="M170.133 20.9468H164.879V15.7101H170.133V20.9468Z" fill="#F15E31"/>
<path d="M175.386 20.9468H170.133V15.7101H175.386V20.9468Z" fill="#F15E31"/>
<path d="M180.638 20.9468H175.385V15.7101H180.638V20.9468Z" fill="#F15E31"/>
<path d="M180.638 26.1835H175.385V20.9468H180.638V26.1835Z" fill="#F15E31"/>
<path d="M180.638 31.4202H175.385V26.1835H180.638V31.4202Z" fill="#F15E31"/>
<path d="M180.638 36.6567H175.385V31.42H180.638V36.6567Z" fill="#F15E31"/>
<path d="M180.638 41.8936H175.385V36.6568H180.638V41.8936Z" fill="#F15E31"/>
<path d="M180.638 47.1302H175.385V41.8935H180.638V47.1302Z" fill="#F15E31"/>
<path d="M180.638 52.3669H175.385V47.1302H180.638V52.3669Z" fill="#F15E31"/>
<path d="M185.892 20.9468H180.639V15.7101H185.892V20.9468Z" fill="#F15E31"/>
<path d="M191.146 20.9468H185.893V15.7101H191.146V20.9468Z" fill="#F15E31"/>
<path d="M621.949 20.9468H616.695V15.7101H621.949V20.9468Z" fill="#F15E31"/>
<path d="M627.203 20.9468H621.949V15.7101H627.203V20.9468Z" fill="#F15E31"/>
<path d="M632.457 20.9468H627.203V15.7101H632.457V20.9468Z" fill="#F15E31"/>
<path d="M632.457 26.1835H627.203V20.9468H632.457V26.1835Z" fill="#F15E31"/>
<path d="M632.457 31.4202H627.203V26.1835H632.457V31.4202Z" fill="#F15E31"/>
<path d="M632.457 36.6567H627.203V31.42H632.457V36.6567Z" fill="#F15E31"/>
<path d="M632.457 41.8936H627.203V36.6568H632.457V41.8936Z" fill="#F15E31"/>
<path d="M632.457 47.1302H627.203V41.8935H632.457V47.1302Z" fill="#F15E31"/>
<path d="M632.457 52.3669H627.203V47.1302H632.457V52.3669Z" fill="#F15E31"/>
<path d="M637.711 20.9468H632.457V15.7101H637.711V20.9468Z" fill="#F15E31"/>
<path d="M642.965 20.9468H637.711V15.7101H642.965V20.9468Z" fill="#F15E31"/>
<path d="M138.609 20.9468H133.355V15.7101H138.609V20.9468Z" fill="#F15E31"/>
<path d="M138.609 26.1835H133.355V20.9468H138.609V26.1835Z" fill="#F15E31"/>
<path d="M154.371 26.1835H149.117V20.9468H154.371V26.1835Z" fill="#F15E31"/>
<path d="M138.609 31.4202H133.355V26.1835H138.609V31.4202Z" fill="#F15E31"/>
<path d="M149.117 31.4202H143.863V26.1835H149.117V31.4202Z" fill="#F15E31"/>
<path d="M138.609 36.6567H133.355V31.42H138.609V36.6567Z" fill="#F15E31"/>
<path d="M143.863 36.6567H138.609V31.42H143.863V36.6567Z" fill="#F15E31"/>
<path d="M138.609 41.8936H133.355V36.6568H138.609V41.8936Z" fill="#F15E31"/>
<path d="M138.609 47.1302H133.355V41.8935H138.609V47.1302Z" fill="#F15E31"/>
<path d="M138.609 52.3669H133.355V47.1302H138.609V52.3669Z" fill="#F15E31"/>
<path d="M159.625 20.9468H154.371V15.7101H159.625V20.9468Z" fill="#F15E31"/>
<path d="M159.625 26.1835H154.371V20.9468H159.625V26.1835Z" fill="#F15E31"/>
<path d="M159.625 31.4202H154.371V26.1835H159.625V31.4202Z" fill="#F15E31"/>
<path d="M159.625 36.6567H154.371V31.42H159.625V36.6567Z" fill="#F15E31"/>
<path d="M159.625 41.8936H154.371V36.6568H159.625V41.8936Z" fill="#F15E31"/>
<path d="M159.625 47.1302H154.371V41.8935H159.625V47.1302Z" fill="#F15E31"/>
<path d="M159.625 52.3669H154.371V47.1302H159.625V52.3669Z" fill="#F15E31"/>
<path d="M264.699 20.9468H259.445V15.7101H264.699V20.9468Z" fill="#F15E31"/>
<path d="M264.699 26.1835H259.445V20.9468H264.699V26.1835Z" fill="#F15E31"/>
<path d="M280.459 26.1835H275.205V20.9468H280.459V26.1835Z" fill="#F15E31"/>
<path d="M264.699 31.4202H259.445V26.1835H264.699V31.4202Z" fill="#F15E31"/>
<path d="M275.205 31.4202H269.951V26.1835H275.205V31.4202Z" fill="#F15E31"/>
<path d="M264.699 36.6567H259.445V31.42H264.699V36.6567Z" fill="#F15E31"/>
<path d="M269.953 36.6567H264.699V31.42H269.953V36.6567Z" fill="#F15E31"/>
<path d="M264.699 41.8936H259.445V36.6568H264.699V41.8936Z" fill="#F15E31"/>
<path d="M264.699 47.1302H259.445V41.8935H264.699V47.1302Z" fill="#F15E31"/>
<path d="M264.699 52.3669H259.445V47.1302H264.699V52.3669Z" fill="#F15E31"/>
<path d="M285.713 20.9468H280.459V15.7101H285.713V20.9468Z" fill="#F15E31"/>
<path d="M285.713 26.1835H280.459V20.9468H285.713V26.1835Z" fill="#F15E31"/>
<path d="M285.713 31.4202H280.459V26.1835H285.713V31.4202Z" fill="#F15E31"/>
<path d="M285.713 36.6567H280.459V31.42H285.713V36.6567Z" fill="#F15E31"/>
<path d="M285.713 41.8936H280.459V36.6568H285.713V41.8936Z" fill="#F15E31"/>
<path d="M285.713 47.1302H280.459V41.8935H285.713V47.1302Z" fill="#F15E31"/>
<path d="M285.713 52.3669H280.459V47.1302H285.713V52.3669Z" fill="#F15E31"/>
<path d="M684.994 20.9468H679.74V15.7101H684.994V20.9468Z" fill="#F15E31"/>
<path d="M684.994 26.1835H679.74V20.9468H684.994V26.1835Z" fill="#F15E31"/>
<path d="M700.754 26.1835H695.5V20.9468H700.754V26.1835Z" fill="#F15E31"/>
<path d="M684.994 31.4202H679.74V26.1835H684.994V31.4202Z" fill="#F15E31"/>
<path d="M695.5 31.4202H690.246V26.1835H695.5V31.4202Z" fill="#F15E31"/>
<path d="M684.994 36.6567H679.74V31.42H684.994V36.6567Z" fill="#F15E31"/>
<path d="M690.246 36.6567H684.992V31.42H690.246V36.6567Z" fill="#F15E31"/>
<path d="M684.994 41.8936H679.74V36.6568H684.994V41.8936Z" fill="#F15E31"/>
<path d="M684.994 47.1302H679.74V41.8935H684.994V47.1302Z" fill="#F15E31"/>
<path d="M684.994 52.3669H679.74V47.1302H684.994V52.3669Z" fill="#F15E31"/>
<path d="M700.754 20.9468H706.008V15.7101H700.754V20.9468Z" fill="#F15E31"/>
<path d="M700.754 26.1835H706.008V20.9468H700.754V26.1835Z" fill="#F15E31"/>
<path d="M700.754 31.42H706.008V26.1835H700.754V31.42Z" fill="#F15E31"/>
<path d="M700.754 36.6567H706.008V31.42H700.754V36.6567Z" fill="#F15E31"/>
<path d="M700.754 41.8936H706.008V36.6568H700.754V41.8936Z" fill="#F15E31"/>
<path d="M700.754 47.1302H706.008V41.8935H700.754V47.1302Z" fill="#F15E31"/>
<path d="M700.754 52.3668H706.008V47.1303H700.754V52.3668Z" fill="#F15E31"/>
<path d="M682.365 5.23669H687.619V-1.95503e-05H682.365V5.23669Z" fill="#F15E31"/>
<path d="M698.127 5.23669H703.38V-1.95503e-05H698.127V5.23669Z" fill="#F15E31"/>
<path d="M692.873 10.4734H687.619V5.23668H692.873V10.4734Z" fill="#F15E31"/>
<path d="M698.127 10.4734H692.873V5.23668H698.127V10.4734Z" fill="#F15E31"/>
<path d="M206.908 20.9468H201.654V15.7101H206.908V20.9468Z" fill="#F15E31"/>
<path d="M201.654 26.1835H196.4V20.9468H201.654V26.1835Z" fill="#F15E31"/>
<path d="M201.654 31.4202H196.4V26.1835H201.654V31.4202Z" fill="#F15E31"/>
<path d="M201.654 36.6567H196.4V31.42H201.654V36.6567Z" fill="#F15E31"/>
<path d="M201.654 41.8936H196.4V36.6568H201.654V41.8936Z" fill="#F15E31"/>
<path d="M201.654 47.1302H196.4V41.8935H201.654V47.1302Z" fill="#F15E31"/>
<path d="M222.67 26.1835H217.416V20.9468H222.67V26.1835Z" fill="#F15E31"/>
<path d="M222.67 31.4202H217.416V26.1835H222.67V31.4202Z" fill="#F15E31"/>
<path d="M222.67 36.6567H217.416V31.42H222.67V36.6567Z" fill="#F15E31"/>
<path d="M222.67 41.8936H217.416V36.6568H222.67V41.8936Z" fill="#F15E31"/>
<path d="M222.67 47.1302H217.416V41.8935H222.67V47.1302Z" fill="#F15E31"/>
<path d="M212.162 20.9468H206.908V15.7101H212.162V20.9468Z" fill="#F15E31"/>
<path d="M217.416 20.9468H212.162V15.7101H217.416V20.9468Z" fill="#F15E31"/>
<path d="M206.908 52.3669H201.654V47.1302H206.908V52.3669Z" fill="#F15E31"/>
<path d="M212.162 52.3669H206.908V47.1302H212.162V52.3669Z" fill="#F15E31"/>
<path d="M217.416 52.3669H212.162V47.1302H217.416V52.3669Z" fill="#F15E31"/>
<path d="M600.933 20.9468H595.68V15.7101H600.933V20.9468Z" fill="#F15E31"/>
<path d="M595.681 26.1835H590.428V20.9468H595.681V26.1835Z" fill="#F15E31"/>
<path d="M595.681 31.4202H590.428V26.1835H595.681V31.4202Z" fill="#F15E31"/>
<path d="M595.681 36.6567H590.428V31.42H595.681V36.6567Z" fill="#F15E31"/>
<path d="M595.681 41.8936H590.428V36.6568H595.681V41.8936Z" fill="#F15E31"/>
<path d="M595.681 47.1302H590.428V41.8935H595.681V47.1302Z" fill="#F15E31"/>
<path d="M616.695 26.1835H611.441V20.9468H616.695V26.1835Z" fill="#F15E31"/>
<path d="M616.695 47.1302H611.441V41.8935H616.695V47.1302Z" fill="#F15E31"/>
<path d="M606.187 20.9468H600.934V15.7101H606.187V20.9468Z" fill="#F15E31"/>
<path d="M611.441 20.9468H606.188V15.7101H611.441V20.9468Z" fill="#F15E31"/>
<path d="M600.933 52.3669H595.68V47.1302H600.933V52.3669Z" fill="#F15E31"/>
<path d="M606.187 52.3669H600.934V47.1302H606.187V52.3669Z" fill="#F15E31"/>
<path d="M611.441 52.3669H606.188V47.1302H611.441V52.3669Z" fill="#F15E31"/>
<path d="M411.801 20.9468H406.547V15.7101H411.801V20.9468Z" fill="#F15E31"/>
<path d="M406.549 26.1835H401.295V20.9468H406.549V26.1835Z" fill="#F15E31"/>
<path d="M406.549 47.1302H401.295V41.8935H406.549V47.1302Z" fill="#F15E31"/>
<path d="M427.562 26.1835H422.309V20.9468H427.562V26.1835Z" fill="#F15E31"/>
<path d="M422.308 31.4202H417.055V26.1835H422.308V31.4202Z" fill="#F15E31"/>
<path d="M417.054 31.4202H411.801V26.1835H417.054V31.4202Z" fill="#F15E31"/>
<path d="M427.562 47.1302H422.309V41.8935H427.562V47.1302Z" fill="#F15E31"/>
<path d="M427.562 41.8936H422.309V36.6568H427.562V41.8936Z" fill="#F15E31"/>
<path d="M427.562 36.6567H422.309V31.42H427.562V36.6567Z" fill="#F15E31"/>
<path d="M417.054 20.9468H411.801V15.7101H417.054V20.9468Z" fill="#F15E31"/>
<path d="M422.308 20.9468H417.055V15.7101H422.308V20.9468Z" fill="#F15E31"/>
<path d="M411.801 52.3669H406.547V47.1302H411.801V52.3669Z" fill="#F15E31"/>
<path d="M417.054 52.3669H411.801V47.1302H417.054V52.3669Z" fill="#F15E31"/>
<path d="M422.308 52.3669H417.055V47.1302H422.308V52.3669Z" fill="#F15E31"/>
<path d="M380.279 20.9468H375.025V15.7101H380.279V20.9468Z" fill="#F15E31"/>
<path d="M375.025 26.1835H369.771V20.9468H375.025V26.1835Z" fill="#F15E31"/>
<path d="M375.025 31.4202H369.771V26.1835H375.025V31.4202Z" fill="#F15E31"/>
<path d="M375.025 36.6567H369.771V31.42H375.025V36.6567Z" fill="#F15E31"/>
<path d="M375.025 41.8936H369.771V36.6568H375.025V41.8936Z" fill="#F15E31"/>
<path d="M375.025 47.1302H369.771V41.8935H375.025V47.1302Z" fill="#F15E31"/>
<path d="M396.041 26.1835H390.787V20.9468H396.041V26.1835Z" fill="#F15E31"/>
<path d="M396.041 31.4202H390.787V26.1835H396.041V31.4202Z" fill="#F15E31"/>
<path d="M396.041 36.6567H390.787V31.42H396.041V36.6567Z" fill="#F15E31"/>
<path d="M396.041 41.8936H390.787V36.6568H396.041V41.8936Z" fill="#F15E31"/>
<path d="M396.041 47.1302H390.787V41.8935H396.041V47.1302Z" fill="#F15E31"/>
<path d="M385.533 20.9468H380.279V15.7101H385.533V20.9468Z" fill="#F15E31"/>
<path d="M390.787 20.9468H385.533V15.7101H390.787V20.9468Z" fill="#F15E31"/>
<path d="M380.279 52.3669H375.025V47.1302H380.279V52.3669Z" fill="#F15E31"/>
<path d="M385.533 52.3669H380.279V47.1302H385.533V52.3669Z" fill="#F15E31"/>
<path d="M390.787 52.3669H385.533V47.1302H390.787V52.3669Z" fill="#F15E31"/>
<path d="M474.845 20.9468H469.592V15.7101H474.845V20.9468Z" fill="#F15E31"/>
<path d="M469.592 26.1835H464.338V20.9468H469.592V26.1835Z" fill="#F15E31"/>
<path d="M469.592 31.4202H464.338V26.1835H469.592V31.4202Z" fill="#F15E31"/>
<path d="M469.592 36.6567H464.338V31.42H469.592V36.6567Z" fill="#F15E31"/>
<path d="M469.592 41.8936H464.338V36.6568H469.592V41.8936Z" fill="#F15E31"/>
<path d="M469.592 47.1302H464.338V41.8935H469.592V47.1302Z" fill="#F15E31"/>
<path d="M490.607 26.1835H485.354V20.9468H490.607V26.1835Z" fill="#F15E31"/>
<path d="M490.607 31.4202H485.354V26.1835H490.607V31.4202Z" fill="#F15E31"/>
<path d="M490.607 36.6567H485.354V31.42H490.607V36.6567Z" fill="#F15E31"/>
<path d="M490.607 41.8936H485.354V36.6568H490.607V41.8936Z" fill="#F15E31"/>
<path d="M490.607 47.1302H485.354V41.8935H490.607V47.1302Z" fill="#F15E31"/>
<path d="M480.099 20.9468H474.846V15.7101H480.099V20.9468Z" fill="#F15E31"/>
<path d="M485.353 20.9468H480.1V15.7101H485.353V20.9468Z" fill="#F15E31"/>
<path d="M474.845 52.3669H469.592V47.1302H474.845V52.3669Z" fill="#F15E31"/>
<path d="M480.099 52.3669H474.846V47.1302H480.099V52.3669Z" fill="#F15E31"/>
<path d="M485.353 52.3669H480.1V47.1302H485.353V52.3669Z" fill="#F15E31"/>
<path d="M501.113 26.1835H495.859V20.9468H501.113V26.1835Z" fill="#F15E31"/>
<path d="M506.367 31.4202H501.113V26.1835H506.367V31.4202Z" fill="#F15E31"/>
<path d="M516.875 31.4202H511.621V26.1835H516.875V31.4202Z" fill="#F15E31"/>
<path d="M501.113 36.6567H495.859V31.42H501.113V36.6567Z" fill="#F15E31"/>
<path d="M501.113 41.8936H495.859V36.6568H501.113V41.8936Z" fill="#F15E31"/>
<path d="M501.113 47.1302H495.859V41.8935H501.113V47.1302Z" fill="#F15E31"/>
<path d="M501.113 52.3669H495.859V47.1302H501.113V52.3669Z" fill="#F15E31"/>
<path d="M522.129 26.1835H516.875V20.9468H522.129V26.1835Z" fill="#F15E31"/>
<path d="M501.113 20.9468H495.859V15.7101H501.113V20.9468Z" fill="#F15E31"/>
<path d="M522.129 20.9468H516.875V15.7101H522.129V20.9468Z" fill="#F15E31"/>
<path d="M522.129 36.6567H516.875V31.42H522.129V36.6567Z" fill="#F15E31"/>
<path d="M522.129 41.8936H516.875V36.6568H522.129V41.8936Z" fill="#F15E31"/>
<path d="M522.129 47.1302H516.875V41.8935H522.129V47.1302Z" fill="#F15E31"/>
<path d="M522.129 52.3669H516.875V47.1302H522.129V52.3669Z" fill="#F15E31"/>
<path d="M511.621 20.9468H506.367V15.7101H511.621V20.9468Z" fill="#F15E31"/>
<path d="M511.621 26.1835H506.367V20.9468H511.621V26.1835Z" fill="#F15E31"/>
<path d="M511.621 31.4202H506.367V26.1835H511.621V31.4202Z" fill="#F15E31"/>
<path d="M511.621 36.6567H506.367V31.42H511.621V36.6567Z" fill="#F15E31"/>
<path d="M511.621 41.8936H506.367V36.6568H511.621V41.8936Z" fill="#F15E31"/>
<path d="M511.621 47.1302H506.367V41.8935H511.621V47.1302Z" fill="#F15E31"/>
<path d="M511.621 52.3669H506.367V47.1302H511.621V52.3669Z" fill="#F15E31"/>
<path d="M569.412 20.9468H564.158V15.7101H569.412V20.9468Z" fill="#F15E31"/>
<path d="M564.158 26.1835H558.904V20.9468H564.158V26.1835Z" fill="#F15E31"/>
<path d="M564.158 31.4202H558.904V26.1835H564.158V31.4202Z" fill="#F15E31"/>
<path d="M564.158 36.6567H558.904V31.42H564.158V36.6567Z" fill="#F15E31"/>
<path d="M564.158 41.8936H558.904V36.6568H564.158V41.8936Z" fill="#F15E31"/>
<path d="M564.158 47.1302H558.904V41.8935H564.158V47.1302Z" fill="#F15E31"/>
<path d="M585.174 26.1835H579.92V20.9468H585.174V26.1835Z" fill="#F15E31"/>
<path d="M585.174 31.4202H579.92V26.1835H585.174V31.4202Z" fill="#F15E31"/>
<path d="M585.174 36.6567H579.92V31.42H585.174V36.6567Z" fill="#F15E31"/>
<path d="M585.174 41.8936H579.92V36.6568H585.174V41.8936Z" fill="#F15E31"/>
<path d="M585.174 47.1302H579.92V41.8935H585.174V47.1302Z" fill="#F15E31"/>
<path d="M574.666 20.9468H569.412V15.7101H574.666V20.9468Z" fill="#F15E31"/>
<path d="M579.92 20.9468H574.666V15.7101H579.92V20.9468Z" fill="#F15E31"/>
<path d="M569.412 52.3669H564.158V47.1302H569.412V52.3669Z" fill="#F15E31"/>
<path d="M574.666 52.3669H569.412V47.1302H574.666V52.3669Z" fill="#F15E31"/>
<path d="M579.92 52.3669H574.666V47.1302H579.92V52.3669Z" fill="#F15E31"/>
<path d="M301.474 20.9468H296.221V15.7101H301.474V20.9468Z" fill="#F15E31"/>
<path d="M306.728 20.9468H301.475V15.7101H306.728V20.9468Z" fill="#F15E31"/>
<path d="M311.982 20.9468H306.729V15.7101H311.982V20.9468Z" fill="#F15E31"/>
<path d="M317.236 20.9468H311.982V15.7101H317.236V20.9468Z" fill="#F15E31"/>
<path d="M317.236 26.1835H311.982V20.9468H317.236V26.1835Z" fill="#F15E31"/>
<path d="M317.236 31.4202H311.982V26.1835H317.236V31.4202Z" fill="#F15E31"/>
<path d="M317.236 36.6567H311.982V31.42H317.236V36.6567Z" fill="#F15E31"/>
<path d="M317.236 41.8936H311.982V36.6568H317.236V41.8936Z" fill="#F15E31"/>
<path d="M317.236 47.1302H311.982V41.8935H317.236V47.1302Z" fill="#F15E31"/>
<path d="M317.236 52.3669H311.982V47.1302H317.236V52.3669Z" fill="#F15E31"/>
<path d="M296.22 36.6567H290.967V31.42H296.22V36.6567Z" fill="#F15E31"/>
<path d="M296.22 41.8936H290.967V36.6568H296.22V41.8936Z" fill="#F15E31"/>
<path d="M296.22 47.1302H290.967V41.8935H296.22V47.1302Z" fill="#F15E31"/>
<path d="M296.22 52.3669H290.967V47.1302H296.22V52.3669Z" fill="#F15E31"/>
<path d="M296.22 26.1835H290.967V20.9468H296.22V26.1835Z" fill="#F15E31"/>
<path d="M301.474 31.4202H296.221V26.1835H301.474V31.4202Z" fill="#F15E31"/>
<path d="M306.728 31.4202H301.475V26.1835H306.728V31.4202Z" fill="#F15E31"/>
<path d="M311.982 31.4202H306.729V26.1835H311.982V31.4202Z" fill="#F15E31"/>
<path d="M438.07 20.9468H432.816V15.7101H438.07V20.9468Z" fill="#F15E31"/>
<path d="M459.084 20.9468H453.83V15.7101H459.084V20.9468Z" fill="#F15E31"/>
<path d="M459.084 26.1835H453.83V20.9468H459.084V26.1835Z" fill="#F15E31"/>
<path d="M459.084 31.4202H453.83V26.1835H459.084V31.4202Z" fill="#F15E31"/>
<path d="M459.084 36.6567H453.83V31.42H459.084V36.6567Z" fill="#F15E31"/>
<path d="M459.084 41.8936H453.83V36.6568H459.084V41.8936Z" fill="#F15E31"/>
<path d="M459.084 47.1302H453.83V41.8935H459.084V47.1302Z" fill="#F15E31"/>
<path d="M459.084 52.3669H453.83V47.1302H459.084V52.3669Z" fill="#F15E31"/>
<path d="M438.07 36.6567H432.816V31.42H438.07V36.6567Z" fill="#F15E31"/>
<path d="M438.07 31.4202H432.816V26.1835H438.07V31.4202Z" fill="#F15E31"/>
<path d="M438.07 41.8936H432.816V36.6568H438.07V41.8936Z" fill="#F15E31"/>
<path d="M438.07 47.1302H432.816V41.8935H438.07V47.1302Z" fill="#F15E31"/>
<path d="M438.07 52.3669H432.816V47.1302H438.07V52.3669Z" fill="#F15E31"/>
<path d="M438.07 26.1835H432.816V20.9468H438.07V26.1835Z" fill="#F15E31"/>
<path d="M443.324 26.1835H438.07V20.9468H443.324V26.1835Z" fill="#F15E31"/>
<path d="M448.578 31.4202H443.324V26.1835H448.578V31.4202Z" fill="#F15E31"/>
<path d="M453.832 26.1835H448.578V20.9468H453.832V26.1835Z" fill="#F15E31"/>
<path d="M532.637 20.9468H527.383V15.7101H532.637V20.9468Z" fill="#F15E31"/>
<path d="M553.65 20.9468H548.396V15.7101H553.65V20.9468Z" fill="#F15E31"/>
<path d="M553.65 26.1835H548.396V20.9468H553.65V26.1835Z" fill="#F15E31"/>
<path d="M553.65 31.4202H548.396V26.1835H553.65V31.4202Z" fill="#F15E31"/>
<path d="M553.65 36.6567H548.396V31.42H553.65V36.6567Z" fill="#F15E31"/>
<path d="M553.65 41.8936H548.396V36.6568H553.65V41.8936Z" fill="#F15E31"/>
<path d="M553.65 47.1302H548.396V41.8935H553.65V47.1302Z" fill="#F15E31"/>
<path d="M553.65 52.3669H548.396V47.1302H553.65V52.3669Z" fill="#F15E31"/>
<path d="M532.637 36.6567H527.383V31.42H532.637V36.6567Z" fill="#F15E31"/>
<path d="M532.637 31.4202H527.383V26.1835H532.637V31.4202Z" fill="#F15E31"/>
<path d="M532.637 41.8936H527.383V36.6568H532.637V41.8936Z" fill="#F15E31"/>
<path d="M532.637 47.1302H527.383V41.8935H532.637V47.1302Z" fill="#F15E31"/>
<path d="M532.637 52.3669H527.383V47.1302H532.637V52.3669Z" fill="#F15E31"/>
<path d="M532.637 26.1835H527.383V20.9468H532.637V26.1835Z" fill="#F15E31"/>
<path d="M537.89 31.4202H532.637V26.1835H537.89V31.4202Z" fill="#F15E31"/>
<path d="M543.144 31.4202H537.891V26.1835H543.144V31.4202Z" fill="#F15E31"/>
<path d="M548.398 31.4202H543.145V26.1835H548.398V31.4202Z" fill="#F15E31"/>
<path d="M2.99414 15.9246V52.152" stroke="#231F20" stroke-width="0.756" stroke-miterlimit="22.926"/>
<path d="M2.84375 15.9683L2.99374 15.7098L3.14374 15.9683H2.84375Z" fill="#231F20"/>
<path d="M2.84375 52.1083L2.99374 52.3667L3.14374 52.1083H2.84375Z" fill="#231F20"/>
<path d="M705.799 58.4514H7.49023" stroke="#231F20" stroke-width="0.756" stroke-miterlimit="22.926"/>
<path d="M705.756 58.6006L706.016 58.4514L705.756 58.3022V58.6006Z" fill="#231F20"/>
<path d="M7.53516 58.3022L7.27539 58.4514L7.53516 58.6006V58.3022Z" fill="#231F20"/>
</g>
<defs>
<clipPath id="clip0_6_392">
<rect width="705.038" height="61.7371" fill="white" transform="translate(0.980469)"/>
</clipPath>
</defs>
</svg>
