<svg width="715" height="716" viewBox="0 0 715 716" fill="none" xmlns="http://www.w3.org/2000/svg">
<circle cx="357.5" cy="358.237" r="357.5" fill="#D9D9D9"/>
<path d="M715 358.237C715 433.734 691.099 507.292 646.724 568.37L357.5 358.237H715Z" fill="#9F53F4"/>
<path d="M467.974 698.24C396.172 721.57 318.828 721.57 247.026 698.24L357.5 358.237L467.974 698.24Z" fill="#9F53F4"/>
<path d="M68.2764 568.37C23.9006 507.292 -6.60012e-06 433.734 0 358.237L357.5 358.237L68.2764 568.37Z" fill="#9F53F4"/>
<path d="M68.2764 148.104C112.652 87.0258 175.225 41.5641 247.026 18.2344L357.5 358.237L68.2764 148.104Z" fill="#9F53F4"/>
<path d="M467.974 18.2344C539.775 41.5641 602.348 87.0258 646.724 148.104L357.5 358.237L467.974 18.2344Z" fill="#9F53F4"/>
<path d="M646.761 568.319C602.396 629.405 539.831 674.878 468.034 698.22L357.5 358.237L646.761 568.319Z" fill="#5B0EB2"/>
<path d="M247.086 698.259C175.28 674.942 112.699 629.491 68.313 568.421L357.5 358.237L247.086 698.259Z" fill="#5B0EB2"/>
<path d="M5.43893e-06 358.299C-0.0131638 282.803 23.8747 209.24 68.2399 148.154L357.5 358.237L5.43893e-06 358.299Z" fill="#5B0EB2"/>
<path d="M246.967 18.2537C318.765 -5.08862 396.109 -5.10212 467.914 18.2151L357.5 358.237L246.967 18.2537Z" fill="#5B0EB2"/>
<path d="M646.687 148.053C691.073 209.124 714.987 282.678 715 358.175L357.5 358.237L646.687 148.053Z" fill="#5B0EB2"/>
<g filter="url(#filter0_d_2006_4)">
<circle cx="357.5" cy="358.237" r="81.5" fill="#EAD8FF"/>
</g>
<path d="M354.435 227.075L354.435 230.263C353.912 230.354 353.449 230.521 353.045 230.765C352.636 231.01 352.29 231.314 352.006 231.677C351.722 232.041 351.509 232.456 351.366 232.922C351.219 233.382 351.145 233.879 351.145 234.413C351.145 235.362 351.384 236.203 351.861 236.936C352.332 237.669 353.026 238.243 353.94 238.658C354.849 239.072 355.96 239.28 357.273 239.28C358.608 239.28 359.733 239.072 360.648 238.658C361.557 238.237 362.244 237.663 362.71 236.936C363.17 236.203 363.401 235.365 363.401 234.422C363.401 233.899 363.332 233.41 363.196 232.956C363.054 232.496 362.847 232.084 362.574 231.72C362.301 231.351 361.966 231.041 361.568 230.791C361.17 230.535 360.716 230.359 360.205 230.263L360.222 227.075C361.051 227.194 361.83 227.453 362.557 227.851C363.284 228.243 363.926 228.757 364.483 229.393C365.034 230.03 365.466 230.774 365.778 231.626C366.085 232.479 366.239 233.425 366.239 234.464C366.239 235.998 365.884 237.368 365.173 238.572C364.463 239.777 363.437 240.726 362.097 241.419C360.756 242.112 359.148 242.459 357.273 242.459C355.392 242.459 353.784 242.109 352.449 241.41C351.108 240.711 350.082 239.76 349.372 238.555C348.662 237.351 348.307 235.987 348.307 234.464C348.307 233.493 348.443 232.589 348.716 231.754C348.989 230.919 349.389 230.175 349.918 229.521C350.44 228.868 351.082 228.331 351.844 227.91C352.599 227.484 353.463 227.206 354.435 227.075ZM355.44 225.032L352.909 225.032L352.909 213.577L355.44 213.577L355.44 217.813L366 217.813L366 220.796L355.44 220.796L355.44 225.032ZM361.824 208.146L352.909 202.905L352.909 199.734L366 199.734L366 202.717L357.077 202.717L366 207.942L366 211.121L352.909 211.121L352.909 208.146L361.824 208.146ZM366 196.566L352.909 196.566L352.909 193.481L358.193 193.481L358.193 192.356L352.909 188.418L352.909 184.702L359.335 189.552L366 184.651L366 188.384L361.065 191.972L361.065 193.481L366 193.481L366 196.566ZM366.256 177.645C366.256 178.958 365.983 180.091 365.437 181.046C364.886 181.995 364.108 182.725 363.102 183.236C362.091 183.748 360.901 184.003 359.531 184.003C358.185 184.003 357.003 183.748 355.986 183.236C354.963 182.719 354.168 181.998 353.599 181.072C353.026 180.145 352.739 179.057 352.739 177.807C352.739 177.001 352.869 176.239 353.131 175.523C353.386 174.802 353.784 174.165 354.324 173.614C354.864 173.057 355.551 172.62 356.386 172.302C357.216 171.984 358.205 171.824 359.352 171.824L360.298 171.824L360.298 182.555L358.219 182.555L358.219 174.782C357.628 174.787 357.102 174.915 356.642 175.165C356.176 175.415 355.81 175.765 355.543 176.214C355.276 176.657 355.142 177.174 355.142 177.765C355.142 178.395 355.295 178.949 355.602 179.427C355.903 179.904 356.301 180.276 356.795 180.543C357.284 180.805 357.821 180.938 358.406 180.944L360.222 180.944C360.983 180.944 361.636 180.805 362.182 180.526C362.722 180.248 363.136 179.859 363.426 179.359C363.71 178.859 363.852 178.273 363.852 177.603C363.852 177.154 363.79 176.748 363.665 176.384C363.534 176.02 363.344 175.705 363.094 175.438C362.844 175.171 362.534 174.969 362.165 174.833L362.489 171.952C363.25 172.134 363.915 172.481 364.483 172.992C365.045 173.498 365.483 174.145 365.795 174.935C366.102 175.725 366.256 176.628 366.256 177.645ZM370.909 169.214L352.909 169.214L352.909 166.18L355.074 166.18L355.074 166.001C354.756 165.842 354.418 165.618 354.06 165.328C353.696 165.038 353.386 164.646 353.131 164.152C352.869 163.658 352.739 163.027 352.739 162.26C352.739 161.248 352.997 160.336 353.514 159.524C354.026 158.706 354.784 158.058 355.79 157.581C356.79 157.098 358.017 156.856 359.472 156.856C360.909 156.856 362.131 157.092 363.136 157.564C364.142 158.035 364.909 158.677 365.437 159.49C365.966 160.302 366.23 161.223 366.23 162.251C366.23 163.001 366.105 163.623 365.855 164.118C365.605 164.612 365.304 165.01 364.952 165.311C364.594 165.606 364.256 165.836 363.937 166.001L363.937 166.129L370.909 166.129L370.909 169.214ZM359.455 166.189C360.301 166.189 361.043 166.069 361.679 165.831C362.315 165.586 362.812 165.237 363.17 164.783C363.523 164.322 363.699 163.765 363.699 163.112C363.699 162.43 363.517 161.859 363.153 161.399C362.784 160.939 362.281 160.592 361.645 160.359C361.003 160.121 360.273 160.001 359.455 160.001C358.642 160.001 357.92 160.118 357.29 160.351C356.659 160.584 356.165 160.93 355.807 161.39C355.449 161.851 355.27 162.425 355.27 163.112C355.27 163.771 355.443 164.331 355.79 164.791C356.136 165.251 356.622 165.601 357.247 165.839C357.872 166.072 358.608 166.189 359.455 166.189ZM366 148.261L352.909 148.261L352.909 137.207L366 137.207L366 140.182L355.44 140.182L355.44 145.312L366 145.312L366 148.261ZM366.264 130.268C366.264 131.097 366.116 131.844 365.821 132.509C365.52 133.168 365.077 133.691 364.491 134.077C363.906 134.458 363.185 134.648 362.327 134.648C361.588 134.648 360.977 134.512 360.494 134.239C360.011 133.966 359.625 133.594 359.335 133.123C359.045 132.651 358.827 132.12 358.679 131.529C358.526 130.932 358.415 130.316 358.347 129.68C358.267 128.912 358.196 128.29 358.134 127.813C358.065 127.336 357.963 126.989 357.827 126.773C357.685 126.552 357.466 126.441 357.17 126.441L357.119 126.441C356.477 126.441 355.98 126.631 355.628 127.012C355.276 127.393 355.099 127.941 355.099 128.657C355.099 129.412 355.264 130.012 355.594 130.455C355.923 130.893 356.312 131.188 356.761 131.341L356.352 134.222C355.557 133.995 354.892 133.62 354.358 133.097C353.818 132.574 353.415 131.935 353.148 131.18C352.875 130.424 352.739 129.589 352.739 128.674C352.739 128.043 352.812 127.415 352.96 126.79C353.108 126.165 353.352 125.594 353.693 125.077C354.028 124.56 354.486 124.145 355.065 123.833C355.645 123.515 356.369 123.356 357.239 123.356L366 123.356L366 126.322L364.202 126.322L364.202 126.424C364.565 126.611 364.906 126.876 365.224 127.216C365.537 127.552 365.79 127.975 365.983 128.486C366.17 128.992 366.264 129.586 366.264 130.268ZM363.997 129.466C363.997 128.847 363.875 128.31 363.631 127.856C363.381 127.401 363.051 127.052 362.642 126.807C362.233 126.557 361.787 126.432 361.304 126.432L359.761 126.432C359.841 126.529 359.915 126.694 359.983 126.927C360.051 127.154 360.111 127.41 360.162 127.694C360.213 127.978 360.259 128.259 360.298 128.537C360.338 128.816 360.372 129.057 360.401 129.262C360.463 129.722 360.565 130.134 360.707 130.498C360.849 130.861 361.048 131.148 361.304 131.359C361.554 131.569 361.878 131.674 362.276 131.674C362.844 131.674 363.273 131.466 363.562 131.052C363.852 130.637 363.997 130.109 363.997 129.466ZM366 120.253L352.909 120.253L352.909 117.168L358.193 117.168L358.193 116.043L352.909 112.106L352.909 108.39L359.335 113.239L366 108.339L366 112.072L361.065 115.66L361.065 117.168L366 117.168L366 120.253Z" fill="white"/>
<path d="M419.261 264.239L417.09 262.719L425.078 251.311L427.249 252.831L424.155 257.251L436.281 265.742L434.482 268.311L422.356 259.82L419.261 264.239ZM443.282 256.19C442.529 257.265 441.656 258.037 440.661 258.506C439.666 258.967 438.609 259.119 437.492 258.961C436.37 258.799 435.249 258.326 434.127 257.541C433.024 256.768 432.202 255.881 431.663 254.879C431.121 253.869 430.884 252.821 430.949 251.737C431.011 250.649 431.4 249.593 432.117 248.569C432.579 247.908 433.123 247.359 433.748 246.923C434.371 246.479 435.062 246.185 435.82 246.043C436.582 245.897 437.396 245.933 438.263 246.151C439.125 246.367 440.026 246.803 440.966 247.462L441.741 248.004L435.586 256.794L433.883 255.601L438.341 249.234C437.854 248.9 437.35 248.703 436.83 248.644C436.304 248.581 435.804 248.657 435.328 248.872C434.855 249.082 434.449 249.429 434.11 249.913C433.748 250.429 433.556 250.971 433.534 251.538C433.507 252.102 433.619 252.635 433.871 253.137C434.121 253.631 434.484 254.049 434.96 254.389L436.447 255.43C437.071 255.867 437.686 256.128 438.293 256.213C438.894 256.294 439.457 256.213 439.982 255.97C440.501 255.723 440.953 255.325 441.338 254.776C441.595 254.408 441.777 254.04 441.883 253.67C441.985 253.297 442.01 252.93 441.958 252.568C441.906 252.206 441.768 251.863 441.544 251.539L443.462 249.365C443.981 249.951 444.327 250.616 444.499 251.361C444.67 252.098 444.657 252.879 444.46 253.705C444.258 254.528 443.865 255.356 443.282 256.19ZM451.93 251.952L437.185 241.628L438.925 239.142L440.699 240.384L440.801 240.238C440.632 239.925 440.484 239.547 440.357 239.104C440.225 238.658 440.196 238.16 440.27 237.608C440.34 237.053 440.594 236.462 441.034 235.833C441.614 235.005 442.349 234.406 443.239 234.037C444.127 233.66 445.12 233.565 446.217 233.751C447.314 233.928 448.457 234.435 449.649 235.269C450.826 236.093 451.692 236.987 452.245 237.95C452.799 238.914 453.059 239.879 453.025 240.848C452.992 241.817 452.681 242.722 452.091 243.565C451.661 244.179 451.201 244.617 450.713 244.879C450.225 245.14 449.75 245.293 449.289 245.338C448.826 245.374 448.417 245.369 448.062 245.321L447.989 245.426L453.699 249.425L451.93 251.952ZM444.282 242.904C444.976 243.389 445.651 243.717 446.31 243.886C446.971 244.051 447.579 244.05 448.133 243.883C448.685 243.708 449.149 243.353 449.524 242.818C449.915 242.259 450.093 241.687 450.059 241.102C450.021 240.513 449.808 239.941 449.42 239.385C449.031 238.821 448.501 238.305 447.831 237.835C447.166 237.369 446.508 237.051 445.857 236.88C445.207 236.709 444.603 236.709 444.046 236.881C443.489 237.053 443.013 237.42 442.619 237.983C442.241 238.523 442.062 239.081 442.082 239.657C442.102 240.233 442.299 240.797 442.674 241.351C443.053 241.901 443.589 242.418 444.282 242.904ZM457.894 228.62L452.339 219.985L453.767 217.947L461.454 229.791L460.218 231.557L446.527 228.286L447.94 226.269L457.894 228.62ZM447.495 226.904L458.218 234.413L456.512 236.849L445.789 229.341L447.495 226.904ZM463.522 226.838L452.799 219.329L454.49 216.914L465.214 224.422L463.522 226.838ZM470.483 217.343C469.749 218.39 468.883 219.137 467.885 219.582C466.886 220.027 465.825 220.172 464.7 220.015C463.578 219.854 462.463 219.386 461.355 218.61C460.248 217.834 459.424 216.945 458.884 215.943C458.348 214.936 458.118 213.887 458.195 212.797C458.272 211.706 458.677 210.637 459.41 209.59C460.143 208.543 461.009 207.797 462.008 207.351C463.006 206.906 464.069 206.766 465.195 206.93C466.325 207.09 467.443 207.558 468.551 208.333C469.659 209.109 470.479 209.999 471.011 211.002C471.546 212.001 471.775 213.046 471.698 214.136C471.621 215.227 471.216 216.296 470.483 217.343ZM468.468 215.912C468.865 215.344 469.042 214.76 468.997 214.16C468.948 213.557 468.723 212.976 468.323 212.418C467.926 211.856 467.402 211.347 466.75 210.891C466.094 210.431 465.434 210.111 464.769 209.93C464.104 209.742 463.479 209.727 462.895 209.887C462.312 210.047 461.821 210.411 461.423 210.979C461.016 211.561 460.835 212.156 460.881 212.764C460.931 213.367 461.156 213.951 461.558 214.517C461.958 215.075 462.486 215.583 463.142 216.043C463.794 216.499 464.45 216.82 465.111 217.005C465.775 217.186 466.399 217.196 466.983 217.036C467.565 216.868 468.06 216.493 468.468 215.912ZM478.858 205.382C478.108 206.453 477.229 207.207 476.222 207.646C475.217 208.08 474.155 208.215 473.037 208.049C471.917 207.875 470.815 207.408 469.73 206.649C468.641 205.886 467.827 205.004 467.287 204.002C466.743 202.996 466.505 201.949 466.574 200.86C466.642 199.763 467.042 198.69 467.775 197.643C468.385 196.773 469.085 196.115 469.875 195.67C470.664 195.216 471.49 194.993 472.352 195C473.209 195.004 474.044 195.249 474.855 195.734L473.164 198.149C472.579 197.885 471.986 197.817 471.384 197.943C470.78 198.062 470.265 198.426 469.838 199.036C469.477 199.552 469.298 200.104 469.304 200.69C469.305 201.274 469.487 201.855 469.85 202.436C470.217 203.012 470.761 203.552 471.483 204.057C472.213 204.569 472.917 204.902 473.592 205.056C474.264 205.207 474.876 205.189 475.431 205.001C475.984 204.806 476.445 204.445 476.813 203.919C477.073 203.547 477.237 203.165 477.302 202.774C477.367 202.375 477.334 201.981 477.204 201.592C477.074 201.203 476.842 200.836 476.508 200.491L478.2 198.075C478.916 198.667 479.432 199.361 479.748 200.158C480.059 200.952 480.147 201.797 480.011 202.694C479.871 203.588 479.487 204.484 478.858 205.382Z" fill="white"/>
<path d="M471.854 307.726L476.372 324.586L473.342 325.398L469.504 311.073L462.128 313.05L465.966 327.374L462.937 328.186L458.419 311.326L471.854 307.726ZM479.021 323.876L478.347 321.427L478.783 321.311C479.113 321.222 479.37 321.074 479.555 320.865C479.74 320.657 479.861 320.36 479.916 319.975C479.97 319.584 479.959 319.081 479.883 318.466C479.806 317.851 479.666 317.098 479.462 316.205L478.185 310.548L487.405 308.077L490.793 320.722L487.912 321.494L485.179 311.294L481.548 312.267L482.442 316.395C482.675 317.462 482.802 318.407 482.823 319.231C482.848 320.048 482.76 320.751 482.559 321.34C482.363 321.928 482.049 322.412 481.616 322.793C481.181 323.168 480.623 323.447 479.943 323.629L479.021 323.876ZM499.458 318.665C498.19 319.005 497.025 319.034 495.961 318.755C494.902 318.468 493.995 317.905 493.241 317.066C492.486 316.221 491.93 315.138 491.576 313.815C491.228 312.514 491.169 311.307 491.399 310.192C491.634 309.07 492.125 308.115 492.873 307.327C493.619 306.533 494.595 305.974 495.803 305.65C496.582 305.441 497.351 305.371 498.111 305.438C498.874 305.498 499.591 305.717 500.263 306.096C500.941 306.473 501.542 307.024 502.065 307.749C502.587 308.468 502.997 309.381 503.294 310.49L503.539 311.404L493.174 314.181L492.636 312.172L500.144 310.161C499.985 309.591 499.726 309.117 499.365 308.737C499.003 308.352 498.571 308.088 498.068 307.946C497.571 307.803 497.037 307.808 496.466 307.961C495.857 308.124 495.362 308.416 494.98 308.835C494.597 309.25 494.34 309.73 494.21 310.277C494.084 310.817 494.094 311.37 494.24 311.937L494.71 313.69C494.907 314.425 495.211 315.021 495.621 315.475C496.029 315.925 496.513 316.225 497.071 316.375C497.627 316.52 498.229 316.506 498.877 316.332C499.31 316.216 499.687 316.051 500.006 315.836C500.323 315.615 500.578 315.35 500.772 315.039C500.965 314.729 501.08 314.377 501.116 313.985L503.982 313.553C504.003 314.335 503.841 315.067 503.494 315.748C503.151 316.422 502.639 317.013 501.957 317.519C501.273 318.02 500.44 318.402 499.458 318.665ZM507.4 320.207L505.758 314.083L506.763 313.813C506.976 313.533 507.125 313.19 507.211 312.785C507.295 312.374 507.329 311.909 507.313 311.389C507.302 310.863 507.253 310.285 507.166 309.655C507.078 309.02 506.97 308.34 506.841 307.616L506.016 303.09L515.154 300.642L517.885 310.833L519.844 310.308L521.485 316.433L518.604 317.205L517.62 313.534L509.347 315.75L510.33 319.422L507.4 320.207ZM509.825 312.993L515.036 311.597L512.95 303.809L509.245 304.801L509.59 306.879C509.839 308.248 510.001 309.434 510.076 310.437C510.151 311.441 510.067 312.293 509.825 312.993Z" fill="white"/>
<path d="M478.524 394.142L475.635 392.795C475.774 392.283 475.818 391.792 475.767 391.323C475.718 390.849 475.589 390.407 475.38 389.996C475.17 389.584 474.884 389.216 474.522 388.89C474.167 388.562 473.748 388.285 473.264 388.059C472.404 387.658 471.541 387.519 470.675 387.642C469.811 387.76 468.998 388.145 468.236 388.799C467.476 389.448 466.818 390.367 466.264 391.556C465.699 392.766 465.412 393.874 465.401 394.878C465.398 395.88 465.628 396.745 466.09 397.475C466.56 398.202 467.222 398.764 468.077 399.163C468.551 399.384 469.022 399.529 469.492 399.597C469.969 399.663 470.43 399.649 470.875 399.556C471.325 399.465 471.747 399.292 472.142 399.037C472.542 398.784 472.893 398.447 473.197 398.024L476.079 399.387C475.62 400.088 475.057 400.684 474.389 401.175C473.726 401.669 472.989 402.033 472.177 402.269C471.367 402.5 470.51 402.577 469.605 402.5C468.703 402.417 467.781 402.157 466.839 401.717C465.448 401.069 464.357 400.168 463.566 399.016C462.774 397.863 462.348 396.532 462.286 395.024C462.225 393.516 462.59 391.912 463.383 390.213C464.177 388.508 465.174 387.199 466.371 386.284C467.571 385.364 468.867 384.837 470.259 384.702C471.651 384.568 473.037 384.822 474.417 385.465C475.298 385.876 476.059 386.381 476.7 386.982C477.342 387.582 477.847 388.259 478.216 389.014C478.588 389.764 478.803 390.573 478.862 391.441C478.929 392.306 478.816 393.206 478.524 394.142ZM479.951 395.917L481.021 393.623L491.402 398.464L490.332 400.758L486.493 398.968L482.031 408.538L479.327 407.277L483.79 397.707L479.951 395.917ZM492.557 408.839L501.075 402.974L503.948 404.314L498.416 416.179L495.712 414.918L499.483 406.831L490.977 412.71L488.096 411.366L493.629 399.502L496.324 400.759L492.557 408.839ZM501.287 417.518L506.82 405.653L509.616 406.957L507.383 411.746L508.402 412.221L514.204 409.097L517.572 410.667L510.461 414.442L512.086 422.553L508.702 420.975L507.536 414.987L506.169 414.349L504.083 418.821L501.287 417.518ZM518.327 425.745C517.137 425.191 516.225 424.464 515.591 423.567C514.964 422.666 514.631 421.652 514.593 420.525C514.557 419.392 514.828 418.205 515.407 416.964C515.976 415.744 516.707 414.781 517.6 414.075C518.501 413.367 519.491 412.951 520.571 412.827C521.652 412.698 522.76 412.898 523.893 413.426C524.624 413.767 525.259 414.208 525.797 414.747C526.343 415.284 526.752 415.913 527.023 416.635C527.3 417.36 527.406 418.168 527.341 419.059C527.279 419.945 527.005 420.909 526.52 421.949L526.12 422.806L516.395 418.271L517.274 416.387L524.319 419.672C524.563 419.134 524.67 418.603 524.638 418.081C524.608 417.553 524.446 417.073 524.152 416.641C523.863 416.212 523.451 415.872 522.916 415.623C522.344 415.356 521.777 415.261 521.215 415.337C520.655 415.409 520.15 415.612 519.699 415.947C519.255 416.279 518.907 416.709 518.655 417.237L517.888 418.883C517.566 419.573 517.416 420.224 517.438 420.836C517.462 421.443 517.639 421.983 517.97 422.457C518.303 422.926 518.774 423.302 519.381 423.585C519.788 423.775 520.183 423.89 520.565 423.93C520.95 423.966 521.316 423.926 521.664 423.813C522.011 423.699 522.325 423.503 522.605 423.226L525.079 424.737C524.592 425.351 523.997 425.807 523.294 426.105C522.598 426.401 521.826 426.524 520.978 426.474C520.132 426.418 519.249 426.175 518.327 425.745ZM524.001 433.526L531.609 417.212L534.358 418.495L533.444 420.457L533.606 420.532C533.884 420.311 534.231 420.1 534.645 419.898C535.061 419.691 535.547 419.576 536.103 419.553C536.662 419.525 537.288 419.673 537.984 419.997C538.9 420.424 539.617 421.044 540.135 421.856C540.661 422.665 540.927 423.627 540.935 424.74C540.95 425.85 540.65 427.064 540.035 428.383C539.428 429.686 538.698 430.693 537.845 431.405C536.993 432.117 536.087 432.541 535.127 432.677C534.168 432.812 533.222 432.663 532.29 432.228C531.61 431.911 531.099 431.535 530.756 431.099C530.414 430.664 530.181 430.223 530.057 429.776C529.94 429.327 529.875 428.923 529.86 428.565L529.744 428.511L526.798 434.83L524.001 433.526ZM531.584 424.423C531.227 425.191 531.021 425.913 530.969 426.591C530.921 427.271 531.028 427.869 531.289 428.385C531.557 428.899 531.987 429.294 532.579 429.57C533.197 429.858 533.792 429.935 534.362 429.8C534.935 429.66 535.462 429.35 535.942 428.872C536.43 428.391 536.846 427.78 537.192 427.038C537.536 426.302 537.735 425.599 537.79 424.929C537.846 424.259 537.741 423.664 537.475 423.145C537.209 422.626 536.765 422.222 536.141 421.931C535.544 421.652 534.964 421.573 534.4 421.693C533.836 421.812 533.314 422.105 532.834 422.57C532.359 423.038 531.942 423.656 531.584 424.423ZM545.066 437.932L550.599 426.068L560.617 430.739L555.084 442.604L552.389 441.347L556.851 431.776L552.201 429.608L547.739 439.178L545.066 437.932ZM561.262 445.776C560.51 445.425 559.896 444.976 559.418 444.427C558.948 443.875 558.662 443.253 558.559 442.559C558.461 441.868 558.593 441.133 558.956 440.356C559.268 439.686 559.65 439.191 560.101 438.868C560.552 438.546 561.053 438.353 561.603 438.289C562.153 438.226 562.727 438.252 563.325 438.368C563.93 438.481 564.536 438.641 565.141 438.849C565.87 439.101 566.464 439.299 566.923 439.444C567.384 439.584 567.742 439.638 567.995 439.606C568.256 439.571 568.449 439.419 568.574 439.151L568.595 439.105C568.867 438.523 568.904 437.992 568.708 437.512C568.512 437.032 568.089 436.64 567.441 436.338C566.756 436.019 566.143 435.915 565.602 436.026C565.066 436.14 564.634 436.368 564.305 436.71L561.867 435.121C562.409 434.496 563.03 434.052 563.73 433.789C564.431 433.521 565.181 433.426 565.979 433.503C566.779 433.575 567.594 433.804 568.423 434.191C568.994 434.458 569.532 434.79 570.036 435.188C570.54 435.586 570.955 436.049 571.279 436.576C571.606 437.099 571.789 437.688 571.827 438.346C571.87 439.005 571.708 439.729 571.341 440.517L567.638 448.458L564.95 447.204L565.71 445.574L565.618 445.531C565.294 445.781 564.91 445.979 564.467 446.123C564.031 446.265 563.541 446.315 562.995 446.274C562.458 446.23 561.88 446.064 561.262 445.776ZM562.946 444.06C563.508 444.322 564.046 444.438 564.561 444.408C565.079 444.374 565.535 444.223 565.929 443.955C566.329 443.69 566.63 443.339 566.834 442.901L567.486 441.503C567.365 441.534 567.185 441.532 566.945 441.495C566.71 441.461 566.453 441.407 566.174 441.333C565.895 441.259 565.621 441.182 565.352 441.1C565.082 441.018 564.849 440.947 564.652 440.887C564.208 440.749 563.792 440.667 563.402 440.642C563.013 440.617 562.668 440.676 562.37 440.819C562.074 440.957 561.842 441.206 561.673 441.567C561.433 442.082 561.44 442.558 561.693 442.996C561.947 443.434 562.365 443.788 562.946 444.06ZM570.45 449.769L575.982 437.904L578.778 439.208L576.545 443.997L577.565 444.473L583.367 441.348L586.734 442.918L579.624 446.693L581.248 454.804L577.865 453.226L576.699 447.238L575.331 446.6L573.246 451.072L570.45 449.769Z" fill="white"/>
<path d="M413.845 452.851L419.727 449.455L420.311 450.466C420.778 450.65 421.342 450.747 422.005 450.758C422.667 450.769 423.486 450.631 424.462 450.343C425.437 450.056 426.627 449.559 428.03 448.854L434.652 445.562L440.23 455.223L427.351 462.66L428.322 464.342L422.454 467.73L420.937 465.103L424.569 463.006L419.008 453.374L415.362 455.479L413.845 452.851ZM422.152 453.655L425.834 460.032L436.418 453.921L433.78 449.352L429.547 451.481C428.482 452.011 427.502 452.439 426.608 452.765C425.714 453.091 424.894 453.325 424.149 453.466C423.409 453.605 422.743 453.668 422.152 453.655ZM429.939 472.819C429.3 471.712 428.99 470.612 429.008 469.519C429.027 468.426 429.344 467.403 429.962 466.449C430.582 465.501 431.478 464.688 432.649 464.012C433.82 463.336 434.974 462.965 436.11 462.899C437.249 462.839 438.297 463.074 439.253 463.604C440.209 464.135 441.006 464.954 441.645 466.061C442.285 467.168 442.595 468.268 442.577 469.361C442.558 470.454 442.237 471.477 441.611 472.428C440.989 473.384 440.092 474.201 438.921 474.877C437.75 475.553 436.598 475.92 435.463 475.978C434.332 476.041 433.288 475.807 432.332 475.276C431.376 474.745 430.579 473.927 429.939 472.819ZM432.088 471.598C432.435 472.199 432.89 472.605 433.452 472.819C434.02 473.029 434.641 473.071 435.315 472.944C435.993 472.821 436.676 472.561 437.365 472.164C438.059 471.763 438.628 471.3 439.072 470.774C439.524 470.251 439.801 469.691 439.903 469.094C440.005 468.497 439.882 467.899 439.536 467.299C439.181 466.684 438.718 466.268 438.147 466.053C437.58 465.843 436.955 465.8 436.273 465.925C435.598 466.052 434.914 466.316 434.22 466.717C433.531 467.114 432.963 467.574 432.516 468.094C432.071 468.62 431.798 469.181 431.696 469.778C431.603 470.376 431.733 470.983 432.088 471.598ZM433.934 479.227L442.203 480.033L445.293 472.719L447.074 475.804L444.367 481.667L444.734 482.302L449.303 479.664L450.845 482.336L446.276 484.974L446.634 485.594L453.065 486.182L454.847 489.267L446.98 488.307L443.531 495.849L441.711 492.698L444.425 486.83L444.084 486.24L439.508 488.882L437.965 486.21L442.542 483.568L442.201 482.977L435.754 482.379L433.934 479.227ZM440.813 498.744L446.305 495.574L446.824 496.474C447.151 496.607 447.521 496.663 447.934 496.641C448.353 496.616 448.811 496.528 449.308 496.379C449.814 496.231 450.359 496.034 450.945 495.788C451.536 495.539 452.165 495.258 452.831 494.945L456.989 492.978L461.719 501.17L452.582 506.446L453.596 508.203L448.104 511.373L446.613 508.79L449.905 506.889L445.622 499.471L442.33 501.372L440.813 498.744ZM448.41 499.22L451.107 503.892L458.089 499.861L456.172 496.539L454.254 497.411C452.996 498.005 451.893 498.469 450.943 498.801C449.993 499.133 449.148 499.272 448.41 499.22ZM455.224 516.614C454.568 515.477 454.237 514.359 454.232 513.26C454.235 512.163 454.544 511.141 455.16 510.195C455.78 509.247 456.683 508.43 457.869 507.746C459.035 507.072 460.186 506.703 461.323 506.637C462.467 506.574 463.517 506.801 464.472 507.319C465.432 507.834 466.224 508.633 466.849 509.715C467.253 510.414 467.52 511.139 467.652 511.889C467.791 512.642 467.765 513.392 467.573 514.139C467.384 514.891 467.007 515.614 466.443 516.307C465.884 516.998 465.107 517.63 464.113 518.203L463.294 518.676L457.929 509.384L459.73 508.344L463.616 515.076C464.125 514.775 464.516 514.402 464.79 513.955C465.068 513.506 465.211 513.02 465.218 512.497C465.228 511.98 465.085 511.466 464.789 510.954C464.474 510.408 464.064 510.005 463.56 509.745C463.06 509.482 462.53 509.358 461.968 509.374C461.414 509.392 460.882 509.545 460.373 509.833L458.801 510.741C458.141 511.121 457.645 511.568 457.312 512.082C456.984 512.593 456.819 513.138 456.818 513.716C456.822 514.291 456.992 514.869 457.327 515.449C457.551 515.838 457.809 516.159 458.099 516.411C458.394 516.661 458.716 516.838 459.066 516.945C459.416 517.051 459.785 517.071 460.173 517.004L461.333 519.661C460.583 519.884 459.834 519.916 459.086 519.758C458.346 519.601 457.643 519.259 456.978 518.731C456.317 518.2 455.733 517.495 455.224 516.614ZM459.661 523.788L470.998 517.242L473.747 522.003C474.522 523.346 474.866 524.561 474.779 525.649C474.694 526.741 474.172 527.564 473.213 528.118C472.578 528.484 471.931 528.562 471.272 528.352C470.62 528.145 470.007 527.702 469.432 527.023C469.726 527.647 469.877 528.255 469.885 528.848C469.895 529.446 469.77 529.99 469.51 530.482C469.249 530.974 468.853 531.373 468.321 531.68C467.696 532.041 467.058 532.19 466.405 532.127C465.76 532.066 465.129 531.798 464.512 531.32C463.903 530.845 463.343 530.165 462.832 529.279L459.661 523.788ZM463.209 525.075L464.935 528.065C465.219 528.557 465.558 528.876 465.951 529.023C466.349 529.167 466.75 529.123 467.154 528.89C467.621 528.62 467.907 528.268 468.01 527.834C468.119 527.397 468.031 526.933 467.747 526.441L466.021 523.452L463.209 525.075ZM467.749 522.455L469.082 524.765C469.293 525.129 469.525 525.412 469.779 525.613C470.037 525.811 470.303 525.924 470.574 525.951C470.85 525.975 471.124 525.909 471.394 525.752C471.783 525.528 471.996 525.192 472.033 524.744C472.072 524.302 471.93 523.8 471.606 523.239L470.302 520.98L467.749 522.455ZM471.62 536.15L481.962 536.231L483.547 538.977L472.21 545.523L470.718 542.939L478.446 538.478L468.106 538.415L466.517 535.662L477.854 529.116L479.341 531.692L471.62 536.15ZM473.794 548.266L485.131 541.721L486.674 544.393L482.097 547.035L482.66 548.009L489.205 548.777L491.063 551.995L483.073 551.009L479.751 558.585L477.885 555.352L480.364 549.777L479.61 548.471L475.337 550.938L473.794 548.266Z" fill="white"/>
<path d="M346 465.459L363.455 465.459L363.455 472.004C363.455 473.345 363.205 474.47 362.705 475.379C362.205 476.294 361.517 476.984 360.642 477.45C359.773 477.922 358.784 478.158 357.676 478.158C356.557 478.158 355.562 477.922 354.693 477.45C353.824 476.979 353.139 476.283 352.639 475.362C352.145 474.442 351.898 473.308 351.898 471.961L351.898 467.623L354.497 467.623L354.497 471.535C354.497 472.319 354.634 472.961 354.906 473.461C355.179 473.961 355.554 474.331 356.031 474.569C356.509 474.814 357.057 474.936 357.676 474.936C358.295 474.936 358.841 474.814 359.312 474.569C359.784 474.331 360.151 473.959 360.412 473.453C360.679 472.953 360.812 472.308 360.812 471.518L360.812 468.621L346 468.621L346 465.459ZM345.744 486.29C345.744 485.012 346.026 483.904 346.588 482.966C347.151 482.029 347.937 481.302 348.949 480.785C349.96 480.273 351.142 480.018 352.494 480.018C353.847 480.018 355.031 480.273 356.048 480.785C357.065 481.302 357.855 482.029 358.418 482.966C358.98 483.904 359.261 485.012 359.261 486.29C359.261 487.569 358.98 488.677 358.418 489.614C357.855 490.552 357.065 491.276 356.048 491.787C355.031 492.305 353.847 492.563 352.494 492.563C351.142 492.563 349.96 492.305 348.949 491.787C347.937 491.276 347.151 490.552 346.588 489.614C346.026 488.677 345.744 487.569 345.744 486.29ZM348.216 486.307C348.216 487.001 348.406 487.58 348.787 488.046C349.173 488.512 349.69 488.859 350.338 489.086C350.986 489.319 351.707 489.435 352.503 489.435C353.304 489.435 354.028 489.319 354.676 489.086C355.33 488.859 355.849 488.512 356.236 488.046C356.622 487.58 356.815 487.001 356.815 486.307C356.815 485.597 356.622 485.006 356.236 484.535C355.849 484.069 355.33 483.719 354.676 483.486C354.028 483.259 353.304 483.145 352.503 483.145C351.707 483.145 350.986 483.259 350.338 483.486C349.69 483.719 349.173 484.069 348.787 484.535C348.406 485.006 348.216 485.597 348.216 486.307ZM363.932 505.673L361.937 506.747C361.608 506.366 361.369 505.94 361.222 505.469C361.074 504.997 360.977 504.443 360.932 503.807C360.892 503.176 360.864 502.426 360.847 501.557C360.824 500.579 360.639 499.781 360.293 499.162C359.946 498.542 359.42 498.068 358.716 497.738C358.017 497.409 357.125 497.193 356.04 497.091L356.04 497.236C356.841 497.645 357.452 498.219 357.872 498.957C358.293 499.696 358.503 500.562 358.503 501.557C358.503 502.642 358.259 503.599 357.77 504.429C357.287 505.264 356.585 505.915 355.665 506.381C354.744 506.852 353.631 507.088 352.324 507.088C350.977 507.088 349.81 506.835 348.821 506.329C347.838 505.824 347.08 505.105 346.545 504.173C346.011 503.247 345.744 502.148 345.744 500.875C345.744 499.608 346.02 498.506 346.571 497.568C347.128 496.636 347.949 495.915 349.034 495.403C350.125 494.898 351.469 494.645 353.065 494.645L354.241 494.645C357.321 494.645 359.619 495.219 361.136 496.366C362.653 497.514 363.426 499.216 363.455 501.471C363.466 502.142 363.469 502.741 363.463 503.27C363.457 503.804 363.483 504.27 363.54 504.667C363.597 505.065 363.727 505.4 363.932 505.673ZM348.216 500.892C348.216 501.523 348.378 502.068 348.702 502.528C349.031 502.988 349.497 503.341 350.099 503.585C350.702 503.835 351.415 503.96 352.239 503.96C353.051 503.96 353.741 503.835 354.31 503.585C354.884 503.335 355.321 502.98 355.622 502.52C355.923 502.06 356.074 501.511 356.074 500.875C356.074 500.398 355.989 499.969 355.818 499.588C355.648 499.207 355.398 498.883 355.068 498.616C354.739 498.349 354.338 498.145 353.866 498.003C353.395 497.861 352.852 497.784 352.239 497.773C351.006 497.773 350.026 498.051 349.298 498.608C348.577 499.165 348.216 499.926 348.216 500.892ZM345.744 515.423C345.744 514.145 346.026 513.037 346.588 512.099C347.151 511.162 347.937 510.435 348.949 509.917C349.96 509.406 351.142 509.15 352.494 509.15C353.847 509.15 355.031 509.406 356.048 509.917C357.065 510.435 357.855 511.162 358.418 512.099C358.98 513.037 359.261 514.145 359.261 515.423C359.261 516.702 358.98 517.81 358.418 518.747C357.855 519.685 357.065 520.409 356.048 520.92C355.031 521.437 353.847 521.696 352.494 521.696C351.142 521.696 349.96 521.437 348.949 520.92C347.937 520.409 347.151 519.685 346.588 518.747C346.026 517.81 345.744 516.702 345.744 515.423ZM348.216 515.44C348.216 516.133 348.406 516.713 348.787 517.179C349.173 517.645 349.69 517.991 350.338 518.219C350.986 518.452 351.707 518.568 352.503 518.568C353.304 518.568 354.028 518.452 354.676 518.219C355.33 517.991 355.849 517.645 356.236 517.179C356.622 516.713 356.815 516.133 356.815 515.44C356.815 514.73 356.622 514.139 356.236 513.667C355.849 513.202 355.33 512.852 354.676 512.619C354.028 512.392 353.304 512.278 352.503 512.278C351.707 512.278 350.986 512.392 350.338 512.619C349.69 512.852 349.173 513.202 348.787 513.667C348.406 514.139 348.216 514.73 348.216 515.44ZM356.56 522.872L359.091 522.872L359.091 534.327L356.56 534.327L356.56 530.091L346 530.091L346 527.108L356.56 527.108L356.56 522.872ZM363.455 542.873L363.455 546.742L350.807 551.924L350.807 552.128L363.455 557.31L363.455 561.18L346 561.18L346 558.145L357.991 558.145L357.991 557.984L346.051 553.16L346.051 550.893L358.017 546.069L358.017 545.907L346 545.907L346 542.873L363.455 542.873ZM345.736 568.253C345.736 567.424 345.884 566.677 346.179 566.012C346.48 565.353 346.923 564.83 347.509 564.444C348.094 564.063 348.815 563.873 349.673 563.873C350.412 563.873 351.023 564.009 351.506 564.282C351.989 564.555 352.375 564.927 352.665 565.398C352.955 565.87 353.173 566.401 353.321 566.992C353.474 567.589 353.585 568.205 353.653 568.841C353.733 569.609 353.804 570.231 353.866 570.708C353.935 571.185 354.037 571.532 354.173 571.748C354.315 571.969 354.534 572.08 354.83 572.08L354.881 572.08C355.523 572.08 356.02 571.89 356.372 571.509C356.724 571.128 356.901 570.58 356.901 569.864C356.901 569.109 356.736 568.509 356.406 568.066C356.077 567.628 355.687 567.333 355.239 567.18L355.648 564.299C356.443 564.526 357.108 564.901 357.642 565.424C358.182 565.947 358.585 566.586 358.852 567.341C359.125 568.097 359.261 568.932 359.261 569.847C359.261 570.478 359.187 571.106 359.04 571.731C358.892 572.356 358.648 572.927 358.307 573.444C357.972 573.961 357.514 574.376 356.935 574.688C356.355 575.006 355.631 575.165 354.761 575.165L346 575.165L346 572.199L347.798 572.199L347.798 572.097C347.435 571.91 347.094 571.645 346.776 571.305C346.463 570.969 346.21 570.546 346.017 570.035C345.83 569.529 345.736 568.935 345.736 568.253ZM348.003 569.055C348.003 569.674 348.125 570.211 348.369 570.665C348.619 571.12 348.949 571.469 349.358 571.714C349.767 571.964 350.213 572.089 350.696 572.089L352.239 572.089C352.159 571.992 352.085 571.827 352.017 571.594C351.949 571.367 351.889 571.111 351.838 570.827C351.787 570.543 351.741 570.262 351.702 569.984C351.662 569.705 351.628 569.464 351.599 569.259C351.537 568.799 351.435 568.387 351.293 568.023C351.151 567.66 350.952 567.373 350.696 567.162C350.446 566.952 350.122 566.847 349.724 566.847C349.156 566.847 348.727 567.055 348.437 567.469C348.148 567.884 348.003 568.412 348.003 569.055ZM346 578.268L359.091 578.268L359.091 581.353L353.807 581.353L353.807 582.478L359.091 586.415L359.091 590.131L352.665 585.282L346 590.182L346 586.449L350.935 582.861L350.935 581.353L346 581.353L346 578.268ZM345.744 597.103C345.744 595.796 346.031 594.674 346.605 593.736C347.179 592.805 347.972 592.086 348.983 591.58C350 591.08 351.17 590.83 352.494 590.83C353.824 590.83 354.997 591.086 356.014 591.597C357.037 592.109 357.832 592.83 358.401 593.762C358.974 594.699 359.261 595.807 359.261 597.086C359.261 598.148 359.065 599.089 358.673 599.907C358.287 600.731 357.739 601.387 357.028 601.876C356.324 602.364 355.5 602.643 354.557 602.711L354.557 599.762C355.187 599.643 355.713 599.359 356.134 598.91C356.56 598.466 356.773 597.873 356.773 597.128C356.773 596.498 356.602 595.944 356.261 595.466C355.926 594.989 355.443 594.617 354.812 594.35C354.182 594.089 353.426 593.958 352.545 593.958C351.653 593.958 350.886 594.089 350.244 594.35C349.608 594.611 349.116 594.978 348.77 595.449C348.429 595.927 348.259 596.486 348.259 597.128C348.259 597.583 348.344 597.989 348.514 598.347C348.69 598.711 348.943 599.015 349.273 599.259C349.602 599.503 350.003 599.671 350.474 599.762L350.474 602.711C349.548 602.637 348.727 602.364 348.011 601.893C347.301 601.421 346.744 600.779 346.341 599.966C345.943 599.154 345.744 598.199 345.744 597.103Z" fill="white"/>
<path d="M286.836 444.228L301.952 452.955L296.34 462.676L294.044 461.351L298.076 454.368L294.533 452.323L292.849 455.238C292.182 456.395 291.42 457.277 290.564 457.885C289.71 458.5 288.813 458.832 287.873 458.88C286.934 458.928 286.001 458.685 285.076 458.151C284.146 457.614 283.455 456.92 283.002 456.068C282.554 455.219 282.371 454.263 282.452 453.201C282.531 452.145 282.904 451.038 283.572 449.882L286.836 444.228ZM287.499 448.262L285.815 451.177C285.463 451.787 285.281 452.371 285.267 452.927C285.254 453.484 285.375 453.98 285.629 454.415C285.88 454.856 286.227 455.204 286.67 455.459C287.309 455.829 287.995 455.896 288.727 455.663C289.461 455.437 290.092 454.867 290.62 453.951L292.304 451.036L287.499 448.262ZM281.182 462.373L286.282 471.37L284.696 474.116L273.359 467.57L274.851 464.987L282.579 469.448L277.463 460.462L279.052 457.709L290.39 464.255L288.902 466.831L281.182 462.373ZM272.227 469.532L274.435 470.787L274.209 471.178C274.039 471.473 273.962 471.76 273.978 472.038C273.994 472.317 274.119 472.612 274.352 472.924C274.591 473.239 274.954 473.586 275.443 473.967C275.932 474.347 276.564 474.781 277.339 475.268L282.243 478.365L277.47 486.632L266.133 480.086L267.625 477.503L276.769 482.783L278.649 479.528L275.097 477.241C274.178 476.652 273.42 476.073 272.823 475.505C272.228 474.945 271.793 474.385 271.518 473.827C271.241 473.273 271.121 472.708 271.158 472.133C271.2 471.56 271.397 470.968 271.75 470.358L272.227 469.532ZM261.461 487.668C262.117 486.531 262.92 485.686 263.87 485.132C264.821 484.586 265.86 484.343 266.987 484.403C268.119 484.465 269.277 484.839 270.463 485.524C271.629 486.197 272.525 487.009 273.15 487.961C273.777 488.92 274.105 489.943 274.134 491.029C274.168 492.118 273.873 493.204 273.248 494.286C272.844 494.985 272.35 495.579 271.766 496.068C271.184 496.565 270.521 496.917 269.778 497.125C269.032 497.337 268.218 497.372 267.336 497.23C266.458 497.091 265.523 496.734 264.529 496.161L263.709 495.688L269.074 486.395L270.875 487.435L266.989 494.166C267.504 494.457 268.023 494.609 268.546 494.622C269.075 494.639 269.567 494.519 270.023 494.264C270.475 494.014 270.85 493.633 271.145 493.121C271.46 492.575 271.604 492.019 271.577 491.452C271.555 490.888 271.397 490.367 271.102 489.888C270.81 489.418 270.412 489.034 269.908 488.736L268.335 487.828C267.676 487.448 267.041 487.242 266.429 487.21C265.822 487.181 265.269 487.311 264.768 487.599C264.272 487.89 263.856 488.326 263.521 488.906C263.296 489.295 263.147 489.678 263.074 490.056C263.005 490.436 263.012 490.804 263.095 491.16C263.178 491.517 263.346 491.846 263.597 492.149L261.876 494.482C261.308 493.944 260.906 493.311 260.669 492.584C260.435 491.865 260.38 491.085 260.504 490.245C260.633 489.408 260.952 488.549 261.461 487.668ZM267.157 499.432L269.349 500.698L263.622 510.618L261.43 509.352L263.548 505.684L254.403 500.404L255.894 497.821L265.039 503.101L267.157 499.432ZM257.659 512.423L255.729 515.767C254.893 517.213 253.895 518.129 252.734 518.515C251.573 518.901 250.42 518.767 249.276 518.113C248.536 517.679 247.982 517.117 247.613 516.425C247.242 515.738 247.088 514.96 247.15 514.091C247.214 513.229 247.525 512.316 248.082 511.352L251.056 506.2L262.393 512.745L260.906 515.321L251.761 510.041L250.274 512.617C249.939 513.198 249.811 513.761 249.89 514.305C249.974 514.852 250.25 515.261 250.718 515.531C251.21 515.815 251.719 515.859 252.245 515.664C252.771 515.469 253.201 515.082 253.536 514.501L255.467 511.157L257.659 512.423ZM244.639 517.316L255.976 523.861L254.433 526.533L243.096 519.987L244.639 517.316Z" fill="white"/>
<path d="M250.777 399.748L247.579 401.24C246.343 401.816 245.123 402.062 243.917 401.978C242.712 401.895 241.612 401.499 240.617 400.79C239.625 400.087 238.829 399.092 238.228 397.804C237.642 396.548 237.403 395.321 237.509 394.124C237.615 392.927 238.025 391.843 238.738 390.871C239.453 389.904 240.429 389.133 241.665 388.556L244.863 387.065C246.104 386.487 247.326 386.23 248.529 386.296C249.729 386.37 250.822 386.75 251.807 387.438C252.792 388.126 253.579 389.101 254.167 390.362C254.768 391.65 255.016 392.901 254.911 394.115C254.809 395.335 254.403 396.434 253.693 397.411C252.979 398.395 252.008 399.175 250.777 399.748ZM249.646 397.323C250.398 396.972 250.977 396.514 251.384 395.948C251.788 395.39 252.001 394.745 252.024 394.014C252.047 393.282 251.857 392.486 251.456 391.626C251.072 390.803 250.597 390.174 250.032 389.742C249.462 389.312 248.831 389.076 248.141 389.035C247.451 388.993 246.735 389.145 245.994 389.491L242.788 390.985C242.041 391.334 241.467 391.783 241.066 392.334C240.662 392.892 240.446 393.526 240.419 394.234C240.389 394.95 240.565 395.718 240.947 396.536C241.343 397.386 241.829 398.037 242.404 398.49C242.973 398.945 243.603 399.2 244.293 399.255C244.978 399.312 245.694 399.166 246.44 398.818L249.646 397.323ZM248.746 403.178L240.937 386.432L243.695 385.146L251.504 401.892L248.746 403.178ZM228.243 387.725C228.624 387.547 228.991 387.413 229.345 387.324C229.69 387.232 229.976 387.18 230.203 387.168L230.57 389.649C230.108 389.72 229.718 389.833 229.401 389.987C229.085 390.141 228.851 390.372 228.7 390.681C228.542 390.986 228.482 391.403 228.521 391.93L228.58 392.683L238.531 402.788L235.564 404.171L228.652 396.486L228.528 396.544L229.964 406.783L226.991 408.169L225.539 392.653C225.467 391.922 225.51 391.247 225.666 390.628C225.821 390.005 226.108 389.451 226.528 388.966C226.94 388.479 227.512 388.066 228.243 387.725ZM224.635 406.475L225.705 408.769L215.323 413.61L214.253 411.316L218.092 409.526L213.63 399.956L216.333 398.695L220.796 408.265L224.635 406.475ZM205.634 423.47L203.818 422.116C204.024 421.656 204.309 421.26 204.674 420.927C205.039 420.594 205.5 420.272 206.058 419.962C206.613 419.659 207.28 419.316 208.061 418.934C208.937 418.5 209.583 417.995 209.997 417.419C210.412 416.844 210.62 416.167 210.621 415.389C210.624 414.616 210.443 413.717 210.077 412.69L209.946 412.751C209.913 413.65 209.652 414.446 209.16 415.139C208.668 415.833 207.972 416.389 207.07 416.81C206.087 417.268 205.116 417.451 204.158 417.359C203.197 417.274 202.31 416.913 201.499 416.276C200.683 415.641 199.998 414.731 199.446 413.547C198.877 412.327 198.613 411.162 198.653 410.052C198.696 408.947 199.027 407.956 199.646 407.078C200.259 406.203 201.143 405.496 202.296 404.958C203.445 404.423 204.56 404.207 205.643 404.31C206.723 404.421 207.724 404.86 208.646 405.627C209.565 406.402 210.362 407.513 211.037 408.96L211.534 410.026C212.835 412.817 213.287 415.143 212.887 417.003C212.488 418.863 211.273 420.282 209.24 421.261C208.638 421.555 208.095 421.811 207.614 422.029C207.128 422.25 206.716 422.47 206.38 422.689C206.043 422.909 205.795 423.169 205.634 423.47ZM203.325 407.205C202.754 407.472 202.328 407.849 202.048 408.337C201.77 408.83 201.648 409.402 201.681 410.051C201.709 410.702 201.897 411.401 202.245 412.148C202.588 412.884 202.993 413.457 203.46 413.866C203.929 414.281 204.436 414.527 204.98 414.606C205.525 414.684 206.085 414.589 206.662 414.32C207.094 414.118 207.447 413.86 207.72 413.544C207.993 413.229 208.181 412.866 208.284 412.454C208.386 412.042 208.403 411.593 208.332 411.106C208.261 410.618 208.102 410.094 207.853 409.533C207.332 408.416 206.665 407.645 205.853 407.221C205.043 406.802 204.201 406.797 203.325 407.205ZM189.111 411.107C190.27 410.566 191.393 410.353 192.48 410.467C193.568 410.58 194.559 410.986 195.455 411.684C196.346 412.385 197.077 413.348 197.649 414.573C198.22 415.799 198.489 416.98 198.456 418.118C198.417 419.259 198.092 420.282 197.48 421.188C196.868 422.094 195.982 422.817 194.824 423.357C193.665 423.897 192.542 424.111 191.455 423.997C190.367 423.884 189.377 423.474 188.484 422.768C187.585 422.065 186.85 421.101 186.279 419.875C185.707 418.65 185.442 417.469 185.483 416.334C185.519 415.201 185.843 414.182 186.455 413.276C187.067 412.37 187.953 411.647 189.111 411.107ZM190.14 413.354C189.512 413.647 189.067 414.064 188.806 414.606C188.547 415.153 188.451 415.768 188.519 416.451C188.582 417.137 188.781 417.84 189.117 418.561C189.456 419.287 189.867 419.894 190.352 420.383C190.834 420.879 191.368 421.204 191.954 421.357C192.539 421.51 193.146 421.44 193.775 421.148C194.418 420.847 194.872 420.423 195.136 419.873C195.395 419.326 195.492 418.707 195.427 418.017C195.359 417.333 195.156 416.629 194.818 415.903C194.481 415.182 194.074 414.576 193.594 414.085C193.109 413.596 192.574 413.275 191.988 413.122C191.4 412.976 190.784 413.054 190.14 413.354ZM181.98 414.714L183.068 417.009L182.659 417.2C182.35 417.344 182.123 417.535 181.976 417.772C181.83 418.009 181.763 418.323 181.775 418.712C181.79 419.107 181.888 419.6 182.07 420.192C182.252 420.784 182.521 421.502 182.877 422.345L185.118 427.695L176.467 431.729L170.934 419.865L173.638 418.604L178.1 428.174L181.507 426.586L179.909 422.676C179.494 421.666 179.205 420.757 179.042 419.949C178.876 419.149 178.84 418.441 178.936 417.826C179.026 417.214 179.252 416.682 179.612 416.232C179.975 415.787 180.476 415.415 181.115 415.118L181.98 414.714ZM168.119 421.178L173.651 433.042L170.855 434.346L168.622 429.557L167.602 430.032L166.267 436.485L162.899 438.056L164.578 430.182L157.32 426.213L160.703 424.635L166.041 427.591L167.408 426.954L165.322 422.482L168.119 421.178ZM152.209 428.305C152.961 427.954 153.7 427.772 154.428 427.759C155.152 427.754 155.813 427.934 156.411 428.302C157.003 428.671 157.481 429.245 157.843 430.022C158.155 430.692 158.29 431.303 158.247 431.856C158.204 432.409 158.03 432.916 157.725 433.378C157.42 433.84 157.031 434.263 156.558 434.646C156.082 435.038 155.57 435.399 155.022 435.729C154.361 436.126 153.827 436.453 153.421 436.711C153.017 436.975 152.746 437.214 152.608 437.429C152.467 437.651 152.459 437.896 152.584 438.164L152.606 438.21C152.877 438.792 153.26 439.162 153.753 439.321C154.247 439.479 154.819 439.407 155.468 439.104C156.152 438.785 156.626 438.382 156.888 437.896C157.146 437.413 157.249 436.935 157.198 436.464L159.982 435.617C160.112 436.434 160.053 437.195 159.805 437.9C159.56 438.61 159.151 439.246 158.579 439.807C158.009 440.374 157.31 440.85 156.481 441.237C155.909 441.503 155.309 441.702 154.68 441.832C154.051 441.962 153.43 441.982 152.818 441.892C152.207 441.806 151.638 441.567 151.11 441.174C150.577 440.783 150.126 440.194 149.759 439.406L146.056 431.466L148.744 430.212L149.504 431.842L149.597 431.799C149.613 431.39 149.709 430.969 149.883 430.537C150.055 430.112 150.332 429.704 150.713 429.313C151.093 428.929 151.591 428.593 152.209 428.305ZM152.441 430.698C151.88 430.96 151.445 431.298 151.136 431.711C150.83 432.13 150.652 432.576 150.604 433.05C150.55 433.527 150.625 433.984 150.829 434.421L151.481 435.819C151.535 435.706 151.653 435.57 151.836 435.41C152.013 435.252 152.219 435.09 152.455 434.923C152.691 434.757 152.927 434.597 153.162 434.443C153.398 434.289 153.602 434.156 153.776 434.044C154.166 433.793 154.496 433.526 154.766 433.244C155.035 432.961 155.211 432.66 155.294 432.339C155.379 432.024 155.337 431.686 155.169 431.326C154.929 430.811 154.56 430.509 154.061 430.422C153.563 430.335 153.023 430.427 152.441 430.698ZM143.382 447.157L140.586 448.461L134.736 435.917C134.338 435.062 134.171 434.281 134.236 433.573C134.301 432.866 134.576 432.233 135.062 431.674C135.547 431.115 136.228 430.632 137.103 430.224C137.206 430.176 137.303 430.134 137.393 430.098C137.48 430.057 137.577 430.016 137.682 429.973L138.745 432.251C138.665 432.282 138.594 432.312 138.532 432.341C138.468 432.365 138.403 432.392 138.336 432.423C137.8 432.673 137.478 432.983 137.368 433.354C137.257 433.719 137.317 434.152 137.55 434.651L143.382 447.157ZM142.777 449.489C143.225 449.28 143.677 449.248 144.133 449.393C144.586 449.545 144.91 449.83 145.105 450.247C145.302 450.669 145.311 451.1 145.134 451.54C144.954 451.988 144.64 452.316 144.192 452.525C143.749 452.731 143.301 452.758 142.848 452.606C142.392 452.462 142.065 452.178 141.868 451.756C141.674 451.339 141.666 450.906 141.846 450.459C142.024 450.019 142.334 449.696 142.777 449.489ZM132.178 437.937L137.71 449.802L134.914 451.105L129.382 439.241L132.178 437.937ZM137.09 452.141C137.533 451.934 137.982 451.904 138.438 452.048C138.897 452.198 139.223 452.481 139.418 452.899C139.615 453.321 139.622 453.753 139.439 454.195C139.259 454.643 138.948 454.97 138.505 455.177C138.057 455.385 137.606 455.414 137.153 455.262C136.697 455.117 136.37 454.834 136.174 454.411C135.979 453.994 135.972 453.562 136.152 453.114C136.329 452.674 136.642 452.35 137.09 452.141ZM126.506 440.582L132.039 452.446L129.328 453.71L128.405 451.733L128.282 451.791C128.385 452.576 128.26 453.277 127.908 453.893C127.553 454.516 127.035 454.986 126.356 455.303C126.201 455.375 126.025 455.448 125.827 455.521C125.627 455.602 125.456 455.66 125.316 455.694L124.116 453.122C124.254 453.108 124.459 453.056 124.73 452.967C125 452.886 125.253 452.79 125.489 452.679C125.999 452.441 126.406 452.117 126.709 451.706C127.01 451.302 127.187 450.853 127.238 450.359C127.29 449.865 127.198 449.365 126.963 448.861L123.71 441.886L126.506 440.582ZM114.569 445.857C115.321 445.506 116.06 445.324 116.788 445.311C117.512 445.306 118.173 445.486 118.771 445.853C119.363 446.223 119.841 446.796 120.203 447.574C120.515 448.243 120.65 448.855 120.607 449.408C120.564 449.961 120.39 450.468 120.085 450.93C119.78 451.392 119.391 451.815 118.918 452.198C118.442 452.589 117.93 452.95 117.382 453.281C116.72 453.677 116.187 454.005 115.78 454.263C115.377 454.527 115.106 454.766 114.968 454.981C114.827 455.203 114.819 455.448 114.944 455.716L114.965 455.762C115.237 456.344 115.619 456.714 116.113 456.873C116.607 457.031 117.179 456.959 117.827 456.656C118.512 456.337 118.986 455.934 119.248 455.448C119.506 454.965 119.609 454.487 119.558 454.015L122.342 453.169C122.472 453.986 122.413 454.747 122.165 455.452C121.919 456.162 121.511 456.798 120.939 457.359C120.369 457.926 119.67 458.402 118.841 458.789C118.269 459.055 117.669 459.254 117.04 459.384C116.411 459.514 115.79 459.534 115.178 459.444C114.567 459.358 113.998 459.119 113.47 458.726C112.937 458.335 112.486 457.746 112.119 456.958L108.416 449.017L111.104 447.764L111.864 449.394L111.957 449.351C111.973 448.942 112.069 448.521 112.243 448.089C112.415 447.664 112.692 447.256 113.073 446.864C113.452 446.481 113.951 446.145 114.569 445.857ZM114.801 448.25C114.24 448.512 113.805 448.849 113.496 449.263C113.19 449.682 113.012 450.128 112.964 450.602C112.91 451.078 112.985 451.535 113.189 451.973L113.841 453.371C113.895 453.258 114.013 453.122 114.196 452.961C114.373 452.804 114.579 452.642 114.815 452.475C115.051 452.309 115.287 452.149 115.522 451.995C115.758 451.841 115.962 451.708 116.135 451.596C116.526 451.345 116.856 451.078 117.126 450.796C117.395 450.513 117.571 450.212 117.654 449.891C117.739 449.576 117.697 449.238 117.529 448.877C117.289 448.362 116.92 448.061 116.421 447.974C115.923 447.887 115.383 447.979 114.801 448.25Z" fill="white"/>
<path d="M231.956 323.216L234.845 324.563C234.707 325.075 234.663 325.566 234.714 326.035C234.762 326.509 234.891 326.951 235.101 327.363C235.31 327.774 235.596 328.142 235.958 328.468C236.313 328.796 236.732 329.073 237.216 329.299C238.076 329.7 238.939 329.839 239.805 329.716C240.669 329.599 241.482 329.213 242.245 328.559C243.005 327.91 243.662 326.991 244.217 325.802C244.781 324.592 245.069 323.484 245.079 322.48C245.082 321.479 244.853 320.613 244.391 319.883C243.921 319.156 243.259 318.594 242.404 318.195C241.93 317.974 241.458 317.829 240.989 317.761C240.512 317.695 240.051 317.709 239.606 317.803C239.156 317.894 238.733 318.067 238.339 318.321C237.939 318.574 237.587 318.911 237.284 319.334L234.402 317.971C234.861 317.27 235.424 316.674 236.092 316.183C236.754 315.689 237.492 315.325 238.304 315.089C239.114 314.858 239.971 314.782 240.875 314.859C241.777 314.941 242.699 315.201 243.642 315.641C245.032 316.289 246.123 317.19 246.915 318.343C247.706 319.495 248.133 320.826 248.194 322.334C248.256 323.842 247.89 325.446 247.098 327.145C246.303 328.85 245.307 330.159 244.109 331.074C242.909 331.994 241.613 332.521 240.221 332.656C238.829 332.791 237.443 332.536 236.063 331.893C235.183 331.482 234.422 330.977 233.78 330.377C233.138 329.776 232.633 329.099 232.264 328.344C231.893 327.594 231.678 326.785 231.618 325.917C231.551 325.052 231.664 324.152 231.956 323.216ZM234.343 311.568L228.811 323.433L218.793 318.761L224.325 306.897L227.021 308.154L222.558 317.724L227.208 319.892L231.671 310.322L234.343 311.568ZM216.382 302.911C217.541 303.451 218.426 304.174 219.038 305.08C219.65 305.986 219.977 307.007 220.018 308.142C220.054 309.275 219.786 310.454 219.215 311.679C218.643 312.905 217.911 313.871 217.018 314.576C216.119 315.28 215.126 315.688 214.039 315.802C212.952 315.915 211.829 315.702 210.67 315.161C209.511 314.621 208.626 313.898 208.014 312.992C207.402 312.086 207.079 311.064 207.046 309.926C207.007 308.786 207.273 307.603 207.845 306.377C208.416 305.152 209.15 304.19 210.046 303.492C210.937 302.791 211.926 302.384 213.013 302.271C214.101 302.157 215.224 302.371 216.382 302.911ZM215.322 305.144C214.694 304.851 214.089 304.778 213.505 304.926C212.92 305.08 212.387 305.402 211.908 305.893C211.423 306.381 211.012 306.986 210.676 307.707C210.337 308.433 210.137 309.139 210.074 309.824C210.004 310.513 210.098 311.13 210.357 311.677C210.616 312.224 211.06 312.644 211.688 312.937C212.332 313.238 212.949 313.312 213.54 313.161C214.125 313.008 214.662 312.685 215.149 312.191C215.629 311.7 216.038 311.091 216.376 310.365C216.713 309.644 216.915 308.942 216.982 308.259C217.045 307.574 216.947 306.957 216.688 306.41C216.421 305.866 215.966 305.444 215.322 305.144ZM210.291 294.936L202.684 311.249L199.934 309.967L200.849 308.005L200.686 307.93C200.408 308.151 200.062 308.362 199.648 308.564C199.231 308.771 198.745 308.886 198.189 308.909C197.631 308.937 197.004 308.789 196.309 308.465C195.392 308.037 194.675 307.418 194.157 306.606C193.632 305.796 193.365 304.835 193.358 303.722C193.342 302.612 193.642 301.397 194.257 300.079C194.864 298.776 195.594 297.769 196.447 297.057C197.299 296.344 198.205 295.921 199.165 295.785C200.125 295.65 201.071 295.799 202.003 296.234C202.682 296.551 203.193 296.927 203.536 297.362C203.878 297.798 204.111 298.239 204.235 298.685C204.352 299.135 204.418 299.538 204.432 299.896L204.548 299.95L207.495 293.632L210.291 294.936ZM202.708 304.039C203.066 303.271 203.271 302.549 203.323 301.871C203.371 301.191 203.264 300.593 203.004 300.076C202.735 299.563 202.305 299.168 201.713 298.892C201.095 298.603 200.501 298.527 199.93 298.662C199.357 298.802 198.83 299.111 198.35 299.59C197.862 300.071 197.446 300.682 197.1 301.424C196.757 302.16 196.557 302.863 196.502 303.533C196.446 304.203 196.552 304.798 196.817 305.317C197.083 305.836 197.528 306.24 198.151 306.531C198.748 306.809 199.329 306.889 199.892 306.769C200.456 306.65 200.978 306.357 201.458 305.891C201.933 305.423 202.35 304.806 202.708 304.039ZM191.466 303.226L190.396 305.52L180.015 300.679L181.085 298.385L184.924 300.175L189.386 290.605L192.09 291.865L187.627 301.435L191.466 303.226ZM178.86 290.304L170.342 296.168L167.469 294.828L173.001 282.964L175.705 284.225L171.934 292.312L180.44 286.433L183.321 287.776L177.789 299.641L175.093 298.384L178.86 290.304ZM170.13 281.625L164.597 293.489L159.615 291.166C158.21 290.511 157.231 289.713 156.679 288.772C156.122 287.829 156.077 286.855 156.546 285.851C156.855 285.187 157.34 284.752 158.001 284.545C158.654 284.342 159.41 284.353 160.27 284.579C159.671 284.237 159.199 283.825 158.853 283.344C158.501 282.86 158.291 282.343 158.223 281.79C158.154 281.238 158.25 280.684 158.509 280.128C158.814 279.474 159.252 278.985 159.823 278.662C160.386 278.342 161.057 278.2 161.836 278.237C162.607 278.277 163.456 278.513 164.383 278.945L170.13 281.625ZM166.485 282.605L163.357 281.147C162.842 280.907 162.381 280.839 161.975 280.944C161.566 281.055 161.263 281.321 161.066 281.743C160.838 282.232 160.806 282.684 160.97 283.099C161.131 283.519 161.469 283.85 161.984 284.09L165.113 285.548L166.485 282.605ZM164.27 287.356L161.852 286.228C161.471 286.051 161.119 285.952 160.795 285.933C160.47 285.919 160.188 285.979 159.95 286.113C159.71 286.251 159.524 286.462 159.392 286.746C159.202 287.152 159.22 287.55 159.447 287.938C159.669 288.323 160.073 288.653 160.66 288.926L163.024 290.028L164.27 287.356ZM146.248 279.121L147.318 276.827L153.636 279.774L152.566 282.068L146.248 279.121ZM149.475 286.438L155.008 274.574L157.704 275.831L152.171 287.695L149.475 286.438ZM142.191 283.041L147.724 271.177L150.412 272.43L144.879 284.295L142.191 283.041ZM141.592 268.026C142.344 268.377 142.959 268.827 143.437 269.375C143.907 269.927 144.193 270.549 144.296 271.243C144.394 271.934 144.261 272.669 143.899 273.446C143.587 274.116 143.205 274.612 142.754 274.934C142.302 275.257 141.802 275.449 141.252 275.513C140.702 275.576 140.128 275.55 139.53 275.434C138.924 275.321 138.319 275.161 137.713 274.954C136.985 274.702 136.391 274.503 135.932 274.358C135.47 274.218 135.113 274.164 134.86 274.197C134.599 274.232 134.406 274.383 134.281 274.651L134.26 274.697C133.988 275.279 133.951 275.81 134.147 276.29C134.343 276.77 134.765 277.162 135.414 277.464C136.099 277.784 136.712 277.888 137.253 277.776C137.789 277.663 138.221 277.435 138.55 277.093L140.988 278.681C140.445 279.306 139.825 279.75 139.125 280.013C138.423 280.281 137.673 280.377 136.876 280.299C136.076 280.227 135.261 279.998 134.432 279.611C133.86 279.345 133.323 279.012 132.818 278.614C132.314 278.216 131.9 277.754 131.576 277.226C131.249 276.704 131.066 276.114 131.028 275.457C130.984 274.797 131.146 274.073 131.514 273.285L135.216 265.345L137.905 266.598L137.145 268.228L137.237 268.271C137.561 268.021 137.944 267.824 138.388 267.679C138.824 267.538 139.314 267.487 139.859 267.528C140.397 267.572 140.975 267.738 141.592 268.026ZM139.908 269.742C139.347 269.481 138.809 269.364 138.294 269.394C137.776 269.428 137.32 269.579 136.926 269.847C136.526 270.112 136.224 270.463 136.02 270.901L135.368 272.299C135.49 272.268 135.67 272.271 135.91 272.307C136.145 272.341 136.402 272.395 136.681 272.469C136.96 272.543 137.234 272.621 137.503 272.702C137.772 272.784 138.006 272.855 138.203 272.916C138.646 273.053 139.063 273.135 139.453 273.16C139.842 273.185 140.186 273.126 140.485 272.983C140.781 272.845 141.013 272.596 141.181 272.236C141.421 271.721 141.415 271.244 141.161 270.806C140.908 270.368 140.49 270.014 139.908 269.742ZM125.391 260.763L120.918 270.357L123.451 271.538C124.095 271.838 124.659 271.919 125.143 271.782C125.628 271.644 125.97 271.352 126.172 270.907C126.383 270.467 126.392 270.025 126.197 269.583C126.001 269.141 125.598 268.777 124.985 268.492L121.478 266.856L122.429 264.817L125.936 266.452C126.883 266.894 127.632 267.425 128.183 268.046C128.734 268.666 129.067 269.336 129.184 270.054C129.3 270.773 129.187 271.498 128.846 272.229C128.491 272.992 127.994 273.566 127.357 273.952C126.712 274.34 125.967 274.526 125.122 274.508C124.27 274.494 123.36 274.26 122.392 273.809L117.24 271.406L122.773 259.542L125.391 260.763ZM133.054 264.336L126.902 268.878L124.144 267.592L130.304 263.054L133.054 264.336ZM109.495 253.068C110.679 253.621 111.575 254.355 112.182 255.271C112.784 256.185 113.1 257.207 113.131 258.338C113.155 259.471 112.887 260.637 112.327 261.837C111.765 263.042 111.038 263.997 110.144 264.703C109.249 265.414 108.259 265.83 107.174 265.951C106.082 266.075 104.956 265.866 103.798 265.326C102.835 264.877 102.065 264.302 101.489 263.601C100.906 262.903 100.543 262.128 100.4 261.278C100.255 260.433 100.351 259.569 100.688 258.685L103.36 259.931C103.202 260.553 103.237 261.15 103.467 261.721C103.688 262.294 104.136 262.738 104.811 263.053C105.382 263.319 105.956 263.399 106.533 263.292C107.107 263.189 107.649 262.909 108.157 262.45C108.661 261.989 109.099 261.36 109.471 260.561C109.848 259.753 110.053 259.002 110.088 258.31C110.12 257.623 109.996 257.023 109.715 256.509C109.426 255.999 108.991 255.608 108.409 255.336C107.997 255.144 107.593 255.05 107.196 255.053C106.792 255.059 106.41 255.159 106.049 255.355C105.689 255.55 105.367 255.843 105.086 256.231L102.413 254.985C102.872 254.177 103.466 253.548 104.196 253.099C104.923 252.654 105.74 252.421 106.647 252.399C107.552 252.382 108.501 252.605 109.495 253.068ZM102.345 244.6C102.726 244.778 103.064 244.973 103.36 245.186C103.653 245.391 103.876 245.577 104.031 245.743L102.366 247.619C102.015 247.311 101.678 247.085 101.356 246.941C101.035 246.798 100.707 246.767 100.374 246.85C100.038 246.925 99.6806 247.147 99.3018 247.516L98.7634 248.045L97.418 262.163L94.4519 260.78L95.8957 250.545L95.7721 250.487L88.8519 258.169L85.8781 256.782L96.8309 245.696C97.3452 245.171 97.8897 244.77 98.4642 244.492C99.0411 244.21 99.65 244.074 100.291 244.084C100.929 244.087 101.614 244.259 102.345 244.6ZM81.131 244.083L73.5927 251.053L71.3372 250.002L81.6664 240.374L83.6207 241.285L82.7768 255.336L80.5445 254.295L81.131 244.083ZM81.2474 254.623L86.7799 242.758L89.4756 244.015L83.9431 255.88L81.2474 254.623ZM78.3991 238.85L72.8666 250.715L70.194 249.468L75.7265 237.604L78.3991 238.85ZM72.9072 236.289L67.3747 248.154L64.5785 246.85L66.8117 242.061L65.7921 241.585L59.9904 244.71L56.6226 243.14L63.7335 239.365L62.1087 231.254L65.4919 232.832L66.6583 238.82L68.0255 239.458L70.111 234.986L72.9072 236.289ZM57.2209 228.683C57.9727 229.034 58.5874 229.483 59.065 230.032C59.5351 230.584 59.8216 231.206 59.9244 231.9C60.0221 232.591 59.8896 233.326 59.5271 234.103C59.2149 234.773 58.8332 235.269 58.3819 235.591C57.9306 235.913 57.43 236.106 56.8802 236.17C56.3303 236.233 55.7564 236.207 55.1584 236.091C54.5529 235.978 53.9473 235.818 53.3418 235.61C52.613 235.358 52.0191 235.16 51.5601 235.015C51.0987 234.875 50.7414 234.821 50.4881 234.853C50.2272 234.889 50.0344 235.04 49.9095 235.308L49.8879 235.354C49.6166 235.936 49.579 236.467 49.7751 236.947C49.9712 237.427 50.3937 237.819 51.0426 238.121C51.7274 238.441 52.3403 238.545 52.8813 238.433C53.4171 238.319 53.8493 238.092 54.178 237.75L56.6159 239.338C56.0738 239.963 55.453 240.407 54.7535 240.67C54.0516 240.938 53.3018 241.034 52.5041 240.956C51.704 240.884 50.8894 240.655 50.0603 240.268C49.4887 240.001 48.9509 239.669 48.4469 239.271C47.9429 238.873 47.5286 238.41 47.2041 237.883C46.8771 237.361 46.6945 236.771 46.6562 236.113C46.6128 235.454 46.7748 234.73 47.1422 233.942L50.8449 226.002L53.5329 227.255L52.7729 228.885L52.8656 228.928C53.1892 228.678 53.5727 228.48 54.0162 228.336C54.4521 228.195 54.9426 228.144 55.4876 228.185C56.0252 228.229 56.6029 228.395 57.2209 228.683ZM55.5367 230.399C54.9754 230.138 54.4372 230.021 53.9219 230.051C53.4043 230.085 52.9484 230.236 52.554 230.504C52.1546 230.769 51.8528 231.12 51.6487 231.558L50.9968 232.956C51.1179 232.925 51.2985 232.927 51.5384 232.964C51.7732 232.998 52.0301 233.052 52.3092 233.126C52.5883 233.2 52.8624 233.277 53.1315 233.359C53.4007 233.441 53.6339 233.512 53.8313 233.572C54.2749 233.71 54.6914 233.792 55.081 233.817C55.4706 233.842 55.8147 233.783 56.1133 233.64C56.4095 233.502 56.6416 233.253 56.8097 232.892C57.0498 232.378 57.0432 231.901 56.7897 231.463C56.5363 231.025 56.1186 230.671 55.5367 230.399Z" fill="white"/>
<path d="M278.771 256.366L280.599 258.977C280.223 259.351 279.94 259.754 279.749 260.186C279.555 260.62 279.445 261.068 279.421 261.529C279.397 261.99 279.46 262.452 279.611 262.915C279.754 263.377 279.979 263.826 280.285 264.264C280.829 265.041 281.507 265.593 282.318 265.92C283.125 266.25 284.022 266.322 285.009 266.137C285.992 265.956 287.021 265.488 288.096 264.735C289.19 263.97 289.992 263.154 290.504 262.29C291.007 261.424 291.241 260.56 291.206 259.697C291.162 258.832 290.87 258.014 290.329 257.241C290.029 256.813 289.693 256.452 289.321 256.158C288.94 255.862 288.534 255.644 288.102 255.502C287.667 255.356 287.215 255.295 286.746 255.318C286.273 255.337 285.8 255.453 285.325 255.668L283.511 253.047C284.259 252.669 285.045 252.434 285.869 252.343C286.69 252.247 287.51 252.3 288.332 252.501C289.148 252.707 289.929 253.069 290.673 253.587C291.414 254.11 292.082 254.797 292.678 255.648C293.558 256.905 294.053 258.23 294.162 259.624C294.271 261.018 293.975 262.384 293.274 263.721C292.573 265.058 291.455 266.264 289.919 267.34C288.379 268.418 286.861 269.054 285.366 269.248C283.867 269.444 282.481 269.253 281.209 268.674C279.936 268.094 278.863 267.181 277.989 265.934C277.432 265.138 277.026 264.319 276.77 263.479C276.514 262.638 276.416 261.799 276.474 260.96C276.527 260.125 276.745 259.317 277.127 258.536C277.502 257.754 278.05 257.03 278.771 256.366ZM286.662 247.472L275.938 254.981L272.785 250.478C271.896 249.207 271.447 248.026 271.439 246.936C271.429 245.841 271.877 244.975 272.785 244.34C273.385 243.919 274.023 243.785 274.698 243.937C275.365 244.087 276.014 244.475 276.646 245.1C276.299 244.505 276.095 243.912 276.036 243.322C275.974 242.728 276.051 242.174 276.268 241.662C276.484 241.149 276.844 240.717 277.347 240.365C277.938 239.951 278.561 239.747 279.217 239.752C279.865 239.756 280.517 239.969 281.173 240.391C281.821 240.811 282.438 241.44 283.025 242.278L286.662 247.472ZM283.015 246.499L281.035 243.671C280.709 243.206 280.344 242.917 279.94 242.805C279.53 242.696 279.135 242.775 278.753 243.042C278.311 243.352 278.057 243.727 277.992 244.169C277.922 244.613 278.049 245.068 278.375 245.534L280.355 248.361L283.015 246.499ZM278.721 249.505L277.191 247.32C276.95 246.975 276.694 246.714 276.424 246.536C276.149 246.361 275.875 246.272 275.602 246.269C275.325 246.269 275.058 246.358 274.802 246.537C274.434 246.795 274.252 247.148 274.254 247.597C274.253 248.042 274.439 248.529 274.81 249.06L276.306 251.196L278.721 249.505ZM273.671 236.2L263.362 237.019L261.543 234.422L272.267 226.914L273.978 229.357L266.668 234.475L276.974 233.637L278.798 236.241L268.074 243.749L266.368 241.313L273.671 236.2ZM262.64 231.576L260.567 233.028L253.997 223.645L256.07 222.193L258.5 225.663L267.15 219.606L268.861 222.049L260.211 228.106L262.64 231.576ZM252.588 221.632L250.882 219.196L259.525 213.144L257.163 209.772L248.52 215.824L246.814 213.387L255.457 207.335L253.096 203.963L244.453 210.015L242.747 207.579L253.471 200.07L263.311 214.124L252.588 221.632ZM248.617 192.692C249.35 193.74 249.755 194.809 249.832 195.899C249.909 196.99 249.682 198.037 249.15 199.04C248.615 200.039 247.793 200.927 246.686 201.702C245.578 202.478 244.461 202.948 243.334 203.113C242.205 203.272 241.141 203.13 240.142 202.684C239.144 202.239 238.278 201.493 237.544 200.445C236.811 199.398 236.406 198.329 236.329 197.239C236.252 196.148 236.484 195.102 237.023 194.1C237.56 193.093 238.382 192.201 239.49 191.426C240.597 190.65 241.714 190.184 242.839 190.027C243.961 189.866 245.021 190.008 246.019 190.454C247.018 190.899 247.884 191.645 248.617 192.692ZM246.583 194.096C246.185 193.528 245.697 193.163 245.118 192.999C244.534 192.839 243.911 192.852 243.251 193.037C242.586 193.218 241.928 193.537 241.277 193.993C240.621 194.452 240.094 194.963 239.697 195.526C239.292 196.087 239.065 196.669 239.016 197.272C238.967 197.875 239.141 198.461 239.538 199.029C239.946 199.61 240.443 199.984 241.03 200.148C241.614 200.308 242.24 200.296 242.909 200.112C243.57 199.927 244.228 199.605 244.884 199.145C245.536 198.689 246.062 198.182 246.462 197.624C246.859 197.062 247.082 196.479 247.132 195.876C247.173 195.271 246.99 194.678 246.583 194.096ZM235.485 192.794L233.412 194.246L226.841 184.863L228.915 183.411L231.344 186.881L239.994 180.824L241.705 183.268L233.055 189.324L235.485 192.794Z" fill="white"/>
<defs>
<filter id="filter0_d_2006_4" x="236" y="248.737" width="243" height="243" filterUnits="userSpaceOnUse" color-interpolation-filters="sRGB">
<feFlood flood-opacity="0" result="BackgroundImageFix"/>
<feColorMatrix in="SourceAlpha" type="matrix" values="0 0 0 0 0 0 0 0 0 0 0 0 0 0 0 0 0 0 127 0" result="hardAlpha"/>
<feOffset dy="12"/>
<feGaussianBlur stdDeviation="20"/>
<feComposite in2="hardAlpha" operator="out"/>
<feColorMatrix type="matrix" values="0 0 0 0 0.148235 0 0 0 0 0 0 0 0 0 0.315 0 0 0 0.3 0"/>
<feBlend mode="normal" in2="BackgroundImageFix" result="effect1_dropShadow_2006_4"/>
<feBlend mode="normal" in="SourceGraphic" in2="effect1_dropShadow_2006_4" result="shape"/>
</filter>
</defs>
</svg>
